<!-- Generator: Adobe Illustrator 24.0.1, SVG Export Plug-In  -->
<svg version="1.1" xmlns="http://www.w3.org/2000/svg" xmlns:xlink="http://www.w3.org/1999/xlink" x="0px" y="0px"
	 width="266.293px" height="72.788px" viewBox="0 0 266.293 72.788" style="enable-background:new 0 0 266.293 72.788;"
	 xml:space="preserve">
<style type="text/css">
	.st0{clip-path:url(#SVGID_2_);fill:#3DAE2B;}
	.st1{clip-path:url(#SVGID_4_);fill:#3DAE2B;}
</style>
<defs>
</defs>
<g>
	<defs>
		<rect id="SVGID_1_" width="266.293" height="72.788"/>
	</defs>
	<clipPath id="SVGID_2_">
		<use xlink:href="#SVGID_1_"  style="overflow:visible;"/>
	</clipPath>
	<path class="st0" d="M69.62,13.612h-4.667c-0.37,0-0.671,0.299-0.671,0.668v43.694c0,0.369,0.301,0.668,0.671,0.668h4.667
		c0.372,0,0.671-0.299,0.671-0.668V41.702c0.006-2.698,0.64-4.856,1.935-6.597c1.497-1.804,3.084-2.522,5.662-2.56
		c2.113,0.028,3.567,0.694,4.842,2.228c1.138,1.439,1.7,3.271,1.706,5.585v17.615c0,0.369,0.299,0.668,0.67,0.668h4.668
		c0.369,0,0.67-0.299,0.67-0.668v-17.19c0.003-4.077-1.003-7.406-2.993-9.893c-2.147-2.761-5.504-4.284-9.444-4.284h-0.114h-0.025
		c-2.348,0-4.472,0.547-6.312,1.626c-0.401,0.235-0.794,0.499-1.167,0.783l-0.098,0.075v-0.123V14.28
		C70.291,13.912,69.991,13.612,69.62,13.612"/>
	<path class="st0" d="M110.237,26.678h-0.002c-4.567,0-8.486,1.614-11.336,4.67c-2.861,2.939-4.369,6.938-4.354,11.556
		c-0.02,4.81,1.48,8.759,4.456,11.732c2.896,2.939,6.881,4.493,11.519,4.493h0.091l0.06,0.002c5.719,0,10.128-1.566,13.11-4.653
		l0.788-0.817c0.256-0.264,0.25-0.685-0.015-0.941l-3.408-3.292c-0.126-0.121-0.293-0.187-0.467-0.187h-0.017
		c-0.181,0.005-0.352,0.08-0.476,0.213l-0.791,0.849c-0.814,0.886-2.205,1.662-3.919,2.194c-1.642,0.508-3.277,0.766-4.865,0.766
		c-2.819-0.009-5.24-0.908-7-2.601c-1.347-1.307-2.244-3.001-2.669-5.034l-0.015-0.074h0.077h24.025
		c0.319,0,0.594-0.224,0.657-0.537l0.183-0.915c0.086-0.438,0.175-0.972,0.175-1.62c0.014-4.466-1.526-8.377-4.456-11.309
		c-2.899-2.939-6.769-4.493-11.192-4.493h-0.063 M101.081,39.615l0.02-0.075c0.475-1.857,1.353-3.406,2.608-4.604
		c1.714-1.625,3.942-2.454,6.62-2.46c2.68,0.006,4.908,0.834,6.622,2.46c1.253,1.198,2.131,2.747,2.609,4.604l0.018,0.075H119.5
		h-18.34H101.081z"/>
	<path class="st0" d="M146.063,26.677h-0.002h-0.129h-0.083c-4.739,0-8.695,1.599-11.439,4.619
		c-2.753,2.916-4.206,6.933-4.194,11.608c-0.018,4.82,1.428,8.766,4.298,11.714c2.832,2.948,6.78,4.51,11.416,4.51h0.028h0.049
		c2.108,0,4.003-0.339,5.785-1.044c1.362-0.525,2.624-1.201,3.745-2.004l0.097-0.071v0.12v1.844c0,0.369,0.303,0.668,0.673,0.668
		h4.667c0.37,0,0.671-0.299,0.671-0.668V27.826c0-0.37-0.301-0.668-0.671-0.668h-4.667c-0.37,0-0.673,0.298-0.673,0.668v2.026v0.126
		l-0.098-0.078C152.878,27.792,149.604,26.677,146.063,26.677 M146,53.262L146,53.262c-3.114-0.02-5.453-0.934-7.147-2.793
		c-1.665-1.864-2.48-4.361-2.488-7.635c0.012-3.233,0.82-5.608,2.537-7.473c1.811-1.973,3.999-2.861,7.098-2.885
		c3.389,0.035,5.955,1.167,7.614,3.365c1.43,1.941,2.016,4.329,2.021,8.236v3.527v0.02l-0.008,0.014
		c-1.285,1.976-3.021,3.484-5.3,4.609C148.907,52.925,147.489,53.259,146,53.262z"/>
	<path class="st0" d="M171.398,13.612h-4.667c-0.37,0-0.671,0.299-0.671,0.668v43.694c0,0.369,0.301,0.668,0.671,0.668h4.667
		c0.37,0,0.671-0.299,0.671-0.668V14.28C172.069,13.912,171.768,13.612,171.398,13.612"/>
	<path class="st0" d="M192.106,26.677h-0.002h-0.08h-0.091c-4.569,0-8.488,1.614-11.339,4.67c-2.862,2.941-4.37,6.94-4.354,11.556
		c-0.017,4.589,1.488,8.609,4.352,11.626c2.887,3.011,6.809,4.601,11.347,4.601l0.084-0.002h0.084
		c4.539,0.002,8.457-1.582,11.332-4.581l0.022-0.021c2.864-3.019,4.363-7.033,4.346-11.622c0.015-4.582-1.467-8.581-4.28-11.556
		C200.672,28.294,196.723,26.677,192.106,26.677 M192.025,53.262c-3.1-0.025-5.283-0.909-7.079-2.867
		c-1.729-1.936-2.543-4.343-2.555-7.562c0.011-3.171,0.825-5.554,2.558-7.492c1.794-1.956,3.976-2.841,7.076-2.867
		c3.096,0.026,5.28,0.911,7.078,2.867c1.731,1.936,2.545,4.32,2.557,7.492c-0.011,3.073-0.871,5.527-2.626,7.492
		C197.219,52.306,194.992,53.239,192.025,53.262"/>
	<path class="st0" d="M228.992,27.158h-15.248c-0.37,0-0.671,0.298-0.671,0.668v4.547c0,0.369,0.301,0.668,0.671,0.668h13.578h0.127
		l-0.081,0.1l-13.818,16.825c-1.133,1.428-1.841,2.609-1.883,4.111c-0.034,1.384,0.6,2.757,1.617,3.501
		c0.981,0.728,2.168,1.057,3.845,1.064l17.702-0.006c0.37,0,0.67-0.299,0.67-0.668v-4.675c0-0.37-0.299-0.668-0.67-0.668h-15.57
		h-0.129l0.081-0.098l13.935-16.98l0.008-0.011l0.015-0.018c1.066-1.367,1.563-2.615,1.569-3.925
		c0.046-1.387-0.677-2.783-1.804-3.475c-1.012-0.65-2.231-0.947-3.939-0.96H228.992"/>
	<path class="st0" d="M59.44,13.612H31.46c-0.37,0-0.673,0.299-0.673,0.668v4.604c0,0.369,0.303,0.668,0.673,0.668h10.782h0.063
		v0.06v38.356c0,0.37,0.299,0.666,0.67,0.666h4.879c0.37,0,0.671-0.296,0.671-0.666V19.612v-0.06h0.061H59.44
		c0.37,0,0.67-0.299,0.67-0.668V14.28C60.109,13.912,59.81,13.612,59.44,13.612"/>
	<path class="st0" d="M239.988,33.552c-1.655,0-2.999-1.338-2.999-2.987c0-1.648,1.344-2.987,2.999-2.987
		c1.657,0,3.01,1.339,3.01,2.987C242.998,32.215,241.645,33.552,239.988,33.552 M239.988,28.115c-1.354,0-2.451,1.103-2.451,2.451
		c0,1.35,1.096,2.452,2.451,2.452s2.46-1.103,2.46-2.452C242.448,29.217,241.343,28.115,239.988,28.115 M241.364,32.321h-0.719
		l-0.109-0.084l-0.677-1.189l-0.084-0.064h-0.281v1.221l-0.118,0.117h-0.645l-0.118-0.117v-3.148c0-0.224,0.064-0.29,0.269-0.321
		c0.163-0.021,0.666-0.054,0.957-0.054c0.935,0,1.505,0.29,1.505,1.156v0.075c0,0.502-0.269,0.78-0.634,0.932l0.742,1.295
		l0.021,0.075L241.364,32.321 M240.493,29.838c0-0.289-0.16-0.418-0.579-0.418h-0.442v0.909l0.442,0.012
		c0.419,0,0.579-0.152,0.579-0.428V29.838z"/>
	<path class="st0" d="M218.48,68.942c-0.525,0.129-1.218,0.227-1.821,0.227c-1.474,0-2.156-0.955-2.156-2.432v-0.69
		c0-1.479,0.673-2.434,2.156-2.434c0.593,0,1.296,0.1,1.821,0.227c0.177,0.038,0.206,0.089,0.206,0.227v4.648
		C218.685,68.844,218.656,68.903,218.48,68.942 M217.816,64.441c-0.267-0.049-0.742-0.098-1.158-0.098
		c-0.978,0-1.285,0.66-1.285,1.705v0.69c0,1.034,0.307,1.703,1.285,1.703c0.416,0,0.88-0.049,1.158-0.098V64.441z"/>
	<polygon class="st0" points="182.186,62.55 180.257,62.55 180.257,68.903 180.079,69.098 179.535,69.098 179.355,68.903 
		179.355,62.55 177.428,62.55 177.23,62.392 177.23,61.959 177.428,61.783 182.186,61.783 182.373,61.959 182.373,62.392 	"/>
	<path class="st0" d="M185.183,64.373c-0.671,0-0.998,0.02-1.374,0.097v4.433L183.63,69.1h-0.514l-0.177-0.197v-4.787l0.177-0.227
		c0.565-0.246,1.247-0.275,2.067-0.275l0.207,0.147v0.451C185.39,64.323,185.372,64.373,185.183,64.373"/>
	<path class="st0" d="M190.199,66.668h-3.314v0.138c0,1.17,0.465,1.605,1.374,1.605c0.574,0,1.307-0.038,1.761-0.109h0.049
		l0.158,0.138v0.335c0,0.129-0.04,0.198-0.198,0.226c-0.564,0.111-1.107,0.167-1.771,0.167c-1.136,0-2.245-0.53-2.245-2.362v-0.888
		c0-1.408,0.782-2.305,2.196-2.305c1.444,0,2.176,0.906,2.176,2.305v0.531L190.199,66.668 M189.506,65.919
		c0-1.113-0.425-1.545-1.296-1.545c-0.849,0-1.325,0.481-1.325,1.545v0.089h2.621V65.919z"/>
	<path class="st0" d="M195.541,69.1h-0.476l-0.197-0.197v-3.24c0-0.984-0.415-1.29-1.058-1.29c-0.309,0-0.929,0.078-1.365,0.275
		v4.255l-0.198,0.197h-0.485l-0.187-0.197v-7.012l0.187-0.198h0.494l0.189,0.198v2.029c0.473-0.207,1.089-0.307,1.513-0.307
		c1.049,0,1.781,0.602,1.781,2.05v3.24L195.541,69.1"/>
	<path class="st0" d="M200.883,68.942c-0.525,0.129-1.216,0.227-1.82,0.227c-1.474,0-2.158-0.955-2.158-2.432v-0.69
		c0-1.479,0.673-2.434,2.158-2.434c0.593,0,1.295,0.1,1.82,0.227c0.178,0.038,0.207,0.089,0.207,0.227v4.648
		C201.091,68.844,201.061,68.903,200.883,68.942 M200.22,64.441c-0.266-0.049-0.742-0.098-1.156-0.098
		c-0.98,0-1.287,0.66-1.287,1.705v0.69c0,1.034,0.307,1.703,1.287,1.703c0.415,0,0.88-0.049,1.156-0.098V64.441z"/>
	<polygon class="st0" points="203.228,69.1 202.714,69.1 202.536,68.903 202.536,61.88 202.714,61.693 203.228,61.693 
		203.406,61.88 203.406,68.903 	"/>
	<path class="st0" d="M206.868,69.167c-1.453,0-2.196-0.954-2.196-2.402v-0.748c0-1.448,0.743-2.405,2.196-2.405
		c1.454,0,2.205,0.957,2.205,2.405v0.748C209.073,68.214,208.322,69.167,206.868,69.167 M208.203,66.018
		c0-1.004-0.405-1.645-1.334-1.645c-0.92,0-1.324,0.628-1.324,1.645v0.748c0,1.006,0.393,1.646,1.324,1.646
		c0.92,0,1.334-0.631,1.334-1.646V66.018z"/>
	<path class="st0" d="M211.835,69.169c-0.365,0-1.078-0.029-1.563-0.147l-0.207-0.197v-0.344l0.178-0.149h0.04
		c0.475,0.06,1.196,0.109,1.553,0.109c0.643,0,0.98-0.167,0.98-0.699c0-0.296-0.18-0.482-0.743-0.817l-0.998-0.593
		c-0.602-0.362-1.009-0.786-1.009-1.41c0-1.023,0.771-1.308,1.791-1.308c0.554,0,1.078,0.049,1.543,0.127l0.187,0.198v0.326
		l-0.169,0.166h-0.029c-0.346-0.029-0.978-0.078-1.533-0.078c-0.554,0-0.92,0.069-0.92,0.57c0,0.298,0.227,0.485,0.682,0.749
		l0.978,0.582c0.822,0.482,1.09,0.906,1.09,1.488C213.685,68.745,212.942,69.169,211.835,69.169"/>
	<path class="st0" d="M224.39,69.169c-0.623,0-1.198-0.089-1.672-0.197l-0.187-0.187V68.45l0.169-0.167h0.028
		c0.594,0.078,1.198,0.137,1.663,0.137c1.078,0,1.542-0.413,1.542-1.358v-0.207c0-0.522-0.256-1.202-1.156-1.202h-1.8l-0.187-0.177
		v-0.344l0.187-0.187h1.8c0.949,0,1.156-0.651,1.156-1.173v-0.138c0-0.806-0.424-1.172-1.542-1.172c-0.574,0-1.02,0.069-1.663,0.149
		h-0.028l-0.169-0.169v-0.344l0.187-0.186c0.475-0.1,1.04-0.197,1.672-0.197c1.474,0,2.463,0.461,2.463,1.918v0.138
		c0,0.66-0.326,1.232-0.94,1.537c0.703,0.344,0.94,0.977,0.94,1.546v0.207C226.853,68.539,225.835,69.169,224.39,69.169"/>
	<path class="st0" d="M229.464,65.81c-0.831,0-1.334-0.521-1.334-1.596v-0.915c0-1.083,0.504-1.585,1.334-1.585
		c0.832,0,1.327,0.502,1.327,1.585v0.915C230.791,65.289,230.296,65.81,229.464,65.81 M230.178,63.299
		c0-0.749-0.269-1.035-0.714-1.035c-0.444,0-0.72,0.286-0.72,1.035v0.915c0,0.749,0.276,1.035,0.72,1.035
		c0.445,0,0.714-0.286,0.714-1.035V63.299z M234.063,61.969l-4.134,6.973l-0.217,0.197h-0.485l-0.1-0.078l0.041-0.118l4.134-6.973
		c0.089-0.147,0.129-0.186,0.227-0.186h0.504l0.08,0.058L234.063,61.969 M233.767,69.168c-0.829,0-1.334-0.521-1.334-1.596v-0.915
		c0-1.083,0.505-1.596,1.334-1.596c0.832,0,1.325,0.513,1.325,1.596v0.915C235.092,68.648,234.599,69.168,233.767,69.168
		 M234.48,66.657c0-0.748-0.267-1.033-0.713-1.033c-0.444,0-0.722,0.286-0.722,1.033v0.915c0,0.749,0.278,1.037,0.722,1.037
		c0.445,0,0.713-0.287,0.713-1.037V66.657z"/>
</g>
</svg>