<!-- Generator: Adobe Illustrator 24.0.1, SVG Export Plug-In  -->
<svg version="1.1" xmlns="http://www.w3.org/2000/svg" xmlns:xlink="http://www.w3.org/1999/xlink" x="0px" y="0px"
	 width="254.133px" height="61.264px" viewBox="0 0 254.133 61.264" style="enable-background:new 0 0 254.133 61.264;"
	 xml:space="preserve">
<style type="text/css">
	.st0{fill:#1E5DA8;}
</style>
<defs>
</defs>
<polygon class="st0" points="72.787,56.568 72.787,58.529 75.189,58.529 75.189,56.568 75.797,56.568 75.797,61.131 75.189,61.131 
	75.189,59.041 72.787,59.041 72.787,61.131 72.18,61.131 72.18,56.568 "/>
<rect x="76.819" y="56.567" class="st0" width="0.607" height="4.562"/>
<path class="st0" d="M80.358,56.568l1.781,4.562h-0.671l-0.498-1.374h-1.929l-0.511,1.374h-0.62l1.777-4.562H80.358z M80.779,59.245
	l-0.76-2.127h-0.012l-0.774,2.127H80.779z"/>
<polygon class="st0" points="83.194,56.568 83.194,60.619 85.608,60.619 85.608,61.131 82.586,61.131 82.586,56.568 "/>
<path class="st0" d="M89.315,60.795c-0.312,0.29-0.754,0.438-1.328,0.438c-0.59,0-1.047-0.14-1.377-0.419
	c-0.33-0.278-0.494-0.722-0.494-1.331v-2.913h0.607v2.913c0,0.408,0.107,0.719,0.326,0.929c0.218,0.21,0.53,0.316,0.94,0.316
	c0.387,0,0.682-0.106,0.885-0.316c0.201-0.21,0.303-0.521,0.303-0.929v-2.913h0.608v2.913
	C89.782,60.064,89.626,60.503,89.315,60.795"/>
<path class="st0" d="M92.9,56.568c0.435,0,0.774,0.107,1.02,0.319c0.244,0.213,0.367,0.504,0.367,0.875
	c0,0.276-0.063,0.521-0.189,0.728c-0.126,0.209-0.327,0.352-0.604,0.428v0.012l0.322,0.127l0.198,0.215l0.109,0.278l0.054,0.319
	l0.018,0.338l0.034,0.339l0.072,0.316l0.144,0.266h-0.677l-0.088-0.192l-0.028-0.272l-0.014-0.324l-0.037-0.338l-0.065-0.316
	l-0.121-0.261l-0.217-0.18c-0.091-0.045-0.209-0.066-0.359-0.066h-1.482v1.949h-0.607v-4.562H92.9z M93.027,58.638l0.336-0.124
	l0.229-0.249c0.058-0.106,0.086-0.241,0.086-0.407c0-0.229-0.063-0.416-0.19-0.562c-0.129-0.144-0.335-0.218-0.62-0.218h-1.508
	v1.592h1.265C92.766,58.671,92.9,58.66,93.027,58.638"/>
<path class="st0" d="M95.011,57.952c0.091-0.289,0.229-0.542,0.412-0.765c0.183-0.22,0.412-0.398,0.683-0.53
	c0.273-0.132,0.59-0.198,0.952-0.198s0.68,0.066,0.952,0.198c0.273,0.132,0.501,0.31,0.683,0.53
	c0.184,0.223,0.321,0.476,0.413,0.765c0.091,0.287,0.137,0.587,0.137,0.897c0,0.312-0.046,0.611-0.137,0.898
	c-0.092,0.287-0.229,0.542-0.413,0.763c-0.183,0.221-0.41,0.396-0.683,0.527c-0.272,0.131-0.59,0.195-0.952,0.195
	s-0.679-0.065-0.952-0.195c-0.272-0.131-0.501-0.306-0.683-0.527c-0.183-0.221-0.321-0.476-0.412-0.763
	c-0.092-0.287-0.138-0.587-0.138-0.898C94.873,58.539,94.919,58.239,95.011,57.952 M95.57,59.529
	c0.06,0.224,0.154,0.425,0.281,0.605c0.127,0.178,0.292,0.322,0.491,0.43c0.201,0.109,0.439,0.163,0.716,0.163
	s0.516-0.054,0.717-0.163c0.198-0.108,0.362-0.252,0.49-0.43c0.129-0.18,0.223-0.381,0.281-0.605c0.061-0.223,0.091-0.45,0.091-0.68
	s-0.029-0.458-0.091-0.68c-0.058-0.224-0.152-0.425-0.281-0.604c-0.127-0.18-0.292-0.322-0.49-0.432
	c-0.201-0.109-0.441-0.163-0.717-0.163s-0.514,0.054-0.716,0.163c-0.2,0.109-0.364,0.252-0.491,0.432
	c-0.127,0.178-0.221,0.379-0.281,0.604c-0.06,0.223-0.091,0.45-0.091,0.68S95.511,59.307,95.57,59.529"/>
<polygon class="st0" points="100.624,56.568 103.025,60.268 103.039,60.268 103.039,56.568 103.614,56.568 103.614,61.131 
	102.95,61.131 100.565,57.468 100.553,57.468 100.553,61.131 99.979,61.131 99.979,56.568 "/>
<path class="st0" d="M106.507,56.568l1.783,4.562h-0.671l-0.498-1.374h-1.93l-0.51,1.374h-0.62l1.777-4.562H106.507z M106.93,59.245
	l-0.76-2.127h-0.012l-0.774,2.127H106.93z"/>
<polygon class="st0" points="108.252,57.079 108.252,56.567 111.899,56.567 111.899,57.079 110.379,57.079 110.379,61.13 
	109.773,61.13 109.773,57.079 "/>
<path class="st0" d="M112.287,57.952c0.091-0.289,0.229-0.542,0.412-0.765c0.183-0.22,0.412-0.398,0.683-0.53
	c0.273-0.132,0.59-0.198,0.952-0.198c0.362,0,0.68,0.066,0.952,0.198c0.273,0.132,0.501,0.31,0.683,0.53
	c0.184,0.223,0.321,0.476,0.413,0.765c0.091,0.287,0.137,0.587,0.137,0.897c0,0.312-0.046,0.611-0.137,0.898
	c-0.092,0.287-0.229,0.542-0.413,0.763c-0.183,0.221-0.41,0.396-0.683,0.527c-0.272,0.131-0.59,0.195-0.952,0.195
	c-0.362,0-0.679-0.065-0.952-0.195c-0.272-0.131-0.501-0.306-0.683-0.527c-0.183-0.221-0.321-0.476-0.412-0.763
	c-0.092-0.287-0.138-0.587-0.138-0.898C112.149,58.539,112.195,58.239,112.287,57.952 M112.846,59.529
	c0.06,0.224,0.154,0.425,0.281,0.605c0.127,0.178,0.292,0.322,0.491,0.43c0.201,0.109,0.439,0.163,0.716,0.163
	c0.276,0,0.516-0.054,0.717-0.163c0.198-0.108,0.362-0.252,0.49-0.43c0.129-0.18,0.223-0.381,0.281-0.605
	c0.061-0.223,0.091-0.45,0.091-0.68s-0.029-0.458-0.091-0.68c-0.058-0.224-0.152-0.425-0.281-0.604
	c-0.127-0.18-0.292-0.322-0.49-0.432c-0.201-0.109-0.441-0.163-0.717-0.163c-0.276,0-0.514,0.054-0.716,0.163
	c-0.2,0.109-0.364,0.252-0.491,0.432c-0.127,0.178-0.221,0.379-0.281,0.604c-0.06,0.223-0.091,0.45-0.091,0.68
	S112.786,59.307,112.846,59.529"/>
<path class="st0" d="M120.602,56.568c0.702,0,1.244,0.18,1.622,0.537c0.381,0.358,0.57,0.903,0.57,1.635
	c0,0.384-0.043,0.723-0.127,1.02c-0.086,0.296-0.218,0.545-0.396,0.748c-0.18,0.203-0.407,0.356-0.685,0.462
	c-0.276,0.108-0.605,0.16-0.983,0.16h-1.566v-4.562H120.602z M120.653,60.619l0.256-0.015l0.324-0.078l0.342-0.175l0.304-0.312
	c0.089-0.132,0.163-0.298,0.22-0.496c0.057-0.198,0.088-0.438,0.088-0.719c0-0.272-0.028-0.516-0.081-0.731
	c-0.052-0.215-0.14-0.399-0.261-0.55c-0.121-0.152-0.278-0.267-0.47-0.346c-0.192-0.078-0.428-0.118-0.709-0.118h-1.021v3.54
	H120.653z"/>
<polygon class="st0" points="126.684,56.568 126.684,57.08 124.141,57.08 124.141,58.529 126.512,58.529 126.512,59.041 
	124.141,59.041 124.141,60.619 126.704,60.619 126.704,61.131 123.534,61.131 123.534,56.568 "/>
<path class="st0" d="M131.498,57.191c-0.201-0.147-0.461-0.22-0.776-0.22l-0.378,0.037l-0.329,0.129l-0.23,0.24
	c-0.057,0.1-0.086,0.224-0.086,0.373c0,0.141,0.041,0.255,0.124,0.342c0.083,0.088,0.193,0.158,0.332,0.213
	c0.14,0.055,0.296,0.101,0.47,0.137c0.175,0.037,0.353,0.077,0.534,0.12c0.181,0.041,0.359,0.092,0.533,0.149
	c0.175,0.057,0.332,0.137,0.47,0.233c0.138,0.098,0.249,0.221,0.332,0.37c0.083,0.149,0.124,0.338,0.124,0.562
	c0,0.244-0.054,0.451-0.161,0.623c-0.109,0.174-0.249,0.313-0.419,0.422c-0.17,0.107-0.361,0.187-0.573,0.236
	c-0.21,0.048-0.419,0.072-0.63,0.072c-0.255,0-0.496-0.032-0.725-0.095c-0.227-0.063-0.428-0.16-0.599-0.29
	c-0.174-0.131-0.31-0.296-0.41-0.499c-0.1-0.201-0.15-0.441-0.15-0.719h0.576c0,0.192,0.037,0.356,0.112,0.496l0.293,0.341
	c0.121,0.089,0.263,0.157,0.425,0.198c0.161,0.043,0.327,0.065,0.498,0.065c0.137,0,0.273-0.014,0.413-0.038l0.373-0.132
	l0.269-0.252c0.068-0.106,0.101-0.243,0.101-0.408c0-0.158-0.041-0.286-0.124-0.384s-0.193-0.178-0.332-0.24
	c-0.138-0.061-0.295-0.112-0.47-0.149c-0.175-0.04-0.353-0.078-0.533-0.118c-0.181-0.041-0.359-0.088-0.534-0.141
	c-0.175-0.052-0.332-0.123-0.47-0.21c-0.138-0.088-0.249-0.2-0.332-0.339c-0.083-0.138-0.124-0.312-0.124-0.521
	c0-0.23,0.046-0.43,0.14-0.597c0.094-0.167,0.218-0.306,0.375-0.415c0.155-0.109,0.332-0.19,0.53-0.243
	c0.198-0.054,0.401-0.081,0.61-0.081c0.235,0,0.453,0.029,0.653,0.084c0.2,0.055,0.375,0.143,0.527,0.261
	c0.15,0.12,0.27,0.27,0.358,0.451c0.088,0.181,0.135,0.396,0.143,0.648h-0.574C131.819,57.575,131.701,57.339,131.498,57.191"/>
<path class="st0" d="M133.236,57.952c0.091-0.289,0.229-0.542,0.412-0.765c0.183-0.22,0.412-0.398,0.683-0.53
	c0.272-0.132,0.59-0.198,0.952-0.198c0.362,0,0.68,0.066,0.952,0.198c0.273,0.132,0.501,0.31,0.683,0.53
	c0.183,0.223,0.321,0.476,0.413,0.765c0.091,0.287,0.137,0.587,0.137,0.897c0,0.312-0.046,0.611-0.137,0.898
	c-0.092,0.287-0.23,0.542-0.413,0.763c-0.183,0.221-0.41,0.396-0.683,0.527c-0.272,0.131-0.59,0.195-0.952,0.195
	c-0.362,0-0.68-0.065-0.952-0.195c-0.272-0.131-0.501-0.306-0.683-0.527c-0.183-0.221-0.321-0.476-0.412-0.763
	c-0.092-0.287-0.138-0.587-0.138-0.898C133.098,58.539,133.144,58.239,133.236,57.952 M133.795,59.529
	c0.06,0.224,0.154,0.425,0.281,0.605c0.127,0.178,0.292,0.322,0.491,0.43c0.201,0.109,0.439,0.163,0.716,0.163
	c0.276,0,0.516-0.054,0.716-0.163c0.2-0.108,0.364-0.252,0.491-0.43c0.129-0.18,0.221-0.381,0.281-0.605
	c0.061-0.223,0.091-0.45,0.091-0.68s-0.029-0.458-0.091-0.68c-0.06-0.224-0.152-0.425-0.281-0.604
	c-0.127-0.18-0.292-0.322-0.491-0.432c-0.2-0.109-0.439-0.163-0.716-0.163c-0.276,0-0.514,0.054-0.716,0.163
	c-0.2,0.109-0.364,0.252-0.491,0.432c-0.127,0.178-0.221,0.379-0.281,0.604c-0.06,0.223-0.091,0.45-0.091,0.68
	S133.735,59.307,133.795,59.529"/>
<path class="st0" d="M139.776,56.568c0.703,0,1.244,0.18,1.622,0.537c0.381,0.358,0.57,0.903,0.57,1.635
	c0,0.384-0.043,0.723-0.127,1.02c-0.086,0.296-0.218,0.545-0.396,0.748s-0.407,0.356-0.683,0.462
	c-0.278,0.108-0.607,0.16-0.984,0.16h-1.566v-4.562H139.776z M139.826,60.619l0.256-0.015l0.324-0.078l0.344-0.175l0.303-0.312
	c0.089-0.132,0.163-0.298,0.22-0.496c0.058-0.198,0.088-0.438,0.088-0.719c0-0.272-0.028-0.516-0.081-0.731
	c-0.052-0.215-0.14-0.399-0.261-0.55c-0.121-0.152-0.278-0.267-0.47-0.346c-0.192-0.078-0.428-0.118-0.709-0.118h-1.021v3.54
	H139.826z"/>
<rect x="142.734" y="56.567" class="st0" width="0.607" height="4.562"/>
<path class="st0" d="M144.245,57.952c0.091-0.289,0.229-0.542,0.412-0.765c0.183-0.22,0.412-0.398,0.683-0.53
	c0.273-0.132,0.591-0.198,0.952-0.198c0.362,0,0.68,0.066,0.952,0.198c0.273,0.132,0.501,0.31,0.685,0.53
	c0.183,0.223,0.319,0.476,0.412,0.765c0.091,0.287,0.137,0.587,0.137,0.897c0,0.312-0.046,0.611-0.137,0.898
	c-0.092,0.287-0.229,0.542-0.412,0.763c-0.184,0.221-0.412,0.396-0.685,0.527c-0.272,0.131-0.59,0.195-0.952,0.195
	c-0.361,0-0.679-0.065-0.952-0.195c-0.272-0.131-0.501-0.306-0.683-0.527s-0.321-0.476-0.412-0.763
	c-0.092-0.287-0.138-0.587-0.138-0.898C144.106,58.539,144.153,58.239,144.245,57.952 M144.804,59.529
	c0.06,0.224,0.154,0.425,0.281,0.605c0.127,0.178,0.292,0.322,0.491,0.43c0.201,0.109,0.439,0.163,0.716,0.163
	c0.276,0,0.516-0.054,0.717-0.163c0.198-0.108,0.362-0.252,0.491-0.43c0.127-0.18,0.221-0.381,0.279-0.605
	c0.061-0.223,0.091-0.45,0.091-0.68s-0.029-0.458-0.091-0.68c-0.058-0.224-0.152-0.425-0.279-0.604
	c-0.129-0.18-0.293-0.322-0.491-0.432c-0.201-0.109-0.441-0.163-0.717-0.163c-0.276,0-0.514,0.054-0.716,0.163
	c-0.2,0.109-0.364,0.252-0.491,0.432c-0.127,0.178-0.221,0.379-0.281,0.604c-0.06,0.223-0.089,0.45-0.089,0.68
	S144.744,59.307,144.804,59.529"/>
<path class="st0" d="M152.904,56.568l1.783,4.562h-0.671l-0.498-1.374h-1.929l-0.511,1.374h-0.62l1.777-4.562H152.904z
	 M153.326,59.245l-0.76-2.127h-0.012l-0.774,2.127H153.326z"/>
<polygon class="st0" points="155.741,56.568 155.741,60.619 158.156,60.619 158.156,61.131 155.134,61.131 155.134,56.568 "/>
<path class="st0" d="M160.246,58.388c0.008-0.178,0.029-0.353,0.063-0.522c0.035-0.17,0.083-0.333,0.147-0.487
	c0.063-0.152,0.151-0.287,0.263-0.402c0.109-0.115,0.249-0.206,0.418-0.273c0.167-0.069,0.369-0.103,0.604-0.103
	c0.235,0,0.435,0.034,0.604,0.103c0.169,0.068,0.307,0.158,0.419,0.273c0.109,0.115,0.198,0.25,0.261,0.402
	c0.064,0.154,0.114,0.316,0.147,0.487c0.034,0.169,0.055,0.344,0.065,0.522c0.008,0.181,0.012,0.353,0.012,0.519
	c0,0.166-0.005,0.338-0.012,0.518c-0.009,0.178-0.031,0.353-0.065,0.524c-0.034,0.17-0.083,0.33-0.147,0.484
	c-0.063,0.151-0.152,0.283-0.261,0.398c-0.112,0.115-0.249,0.206-0.416,0.272c-0.166,0.066-0.369,0.098-0.607,0.098
	c-0.235,0-0.436-0.032-0.604-0.098c-0.169-0.066-0.309-0.157-0.418-0.272c-0.112-0.115-0.2-0.247-0.263-0.398
	c-0.064-0.154-0.112-0.313-0.147-0.484c-0.034-0.17-0.055-0.346-0.063-0.524c-0.009-0.18-0.014-0.352-0.014-0.518
	C160.232,58.741,160.237,58.569,160.246,58.388 M160.824,59.472c0.011,0.212,0.045,0.408,0.101,0.594
	c0.058,0.184,0.152,0.342,0.279,0.468c0.127,0.129,0.306,0.192,0.536,0.192c0.23,0,0.408-0.063,0.536-0.192
	c0.129-0.126,0.221-0.284,0.278-0.468c0.058-0.186,0.092-0.382,0.103-0.594c0.011-0.21,0.017-0.402,0.017-0.573l-0.003-0.365
	l-0.032-0.404l-0.084-0.393l-0.16-0.335l-0.264-0.233c-0.106-0.06-0.237-0.091-0.39-0.091s-0.283,0.031-0.39,0.091l-0.266,0.233
	l-0.16,0.335l-0.081,0.393l-0.032,0.404l-0.003,0.365C160.808,59.07,160.813,59.262,160.824,59.472"/>
<rect x="164.047" y="60.422" class="st0" width="0.709" height="0.708"/>
<path class="st0" d="M167.024,61.13v-3.245h-1.176v-0.435c0.154,0,0.304-0.012,0.447-0.035c0.146-0.025,0.276-0.068,0.395-0.132
	l0.296-0.261c0.081-0.112,0.137-0.252,0.166-0.422h0.416v4.53H167.024z"/>
<path class="st0" d="M170.02,57.157l-0.243,1.304l0.014,0.012c0.097-0.111,0.224-0.194,0.379-0.247
	c0.155-0.052,0.31-0.078,0.464-0.078c0.2,0,0.389,0.032,0.568,0.095c0.178,0.063,0.333,0.161,0.465,0.29
	c0.132,0.131,0.238,0.292,0.313,0.485c0.077,0.195,0.115,0.421,0.115,0.68c0,0.192-0.032,0.378-0.098,0.559
	c-0.066,0.181-0.166,0.342-0.298,0.482c-0.132,0.141-0.296,0.253-0.494,0.336c-0.198,0.083-0.43,0.124-0.694,0.124
	c-0.195,0-0.379-0.028-0.553-0.086c-0.172-0.057-0.324-0.14-0.456-0.249c-0.132-0.109-0.236-0.244-0.313-0.407
	c-0.077-0.161-0.117-0.344-0.121-0.55h0.544l0.086,0.324l0.198,0.261l0.293,0.174l0.375,0.06l0.367-0.066l0.307-0.203l0.207-0.335
	c0.051-0.134,0.077-0.29,0.077-0.47c0-0.149-0.025-0.286-0.074-0.412l-0.207-0.326l-0.324-0.215
	c-0.124-0.049-0.264-0.075-0.418-0.075c-0.18,0-0.338,0.038-0.476,0.118c-0.138,0.078-0.261,0.181-0.367,0.309l-0.467-0.025
	l0.422-2.351h2.236v0.479H170.02z"/>
<path class="st0" d="M173.036,57.402c0.034-0.155,0.092-0.293,0.174-0.413l0.319-0.284c0.132-0.071,0.295-0.104,0.491-0.104
	c0.2,0,0.365,0.034,0.496,0.103l0.312,0.273c0.08,0.115,0.135,0.25,0.167,0.405c0.032,0.157,0.046,0.321,0.046,0.496
	c0,0.166-0.017,0.326-0.054,0.482c-0.035,0.155-0.095,0.292-0.178,0.408l-0.316,0.284c-0.127,0.074-0.286,0.109-0.473,0.109
	c-0.192,0-0.353-0.032-0.485-0.1l-0.321-0.27c-0.08-0.115-0.138-0.25-0.175-0.404c-0.035-0.152-0.054-0.316-0.054-0.491
	C172.985,57.723,173.002,57.557,173.036,57.402 M173.481,58.189l0.072,0.299l0.164,0.23l0.284,0.092l0.293-0.089l0.169-0.227
	l0.08-0.303l0.02-0.313l-0.017-0.304l-0.074-0.301l-0.163-0.229l-0.29-0.092l-0.287,0.092l-0.169,0.229l-0.08,0.301l-0.02,0.31
	L173.481,58.189z M177.58,56.518l-3.432,4.747h-0.55l3.438-4.747H177.58z M176.193,59.446c0.034-0.155,0.091-0.293,0.172-0.412
	l0.319-0.284c0.132-0.071,0.296-0.106,0.491-0.106c0.2,0,0.365,0.034,0.496,0.103l0.312,0.275c0.08,0.114,0.135,0.25,0.167,0.405
	c0.032,0.155,0.048,0.321,0.048,0.494c0,0.166-0.018,0.327-0.054,0.482c-0.037,0.155-0.097,0.292-0.18,0.408l-0.316,0.283
	c-0.127,0.069-0.286,0.104-0.473,0.104c-0.19,0-0.353-0.032-0.485-0.1l-0.319-0.267c-0.081-0.114-0.14-0.246-0.177-0.399
	c-0.035-0.154-0.054-0.318-0.054-0.491C176.141,59.767,176.158,59.601,176.193,59.446 M176.637,60.233l0.072,0.299l0.164,0.23
	l0.284,0.094l0.293-0.091l0.17-0.227l0.078-0.303l0.02-0.313l-0.017-0.303l-0.072-0.301l-0.163-0.23l-0.292-0.092l-0.287,0.092
	l-0.169,0.23l-0.08,0.301l-0.02,0.309L176.637,60.233z"/>
<path class="st0" d="M247.03,19.121h1.646c0.341,0,0.58-0.066,0.72-0.206c0.138-0.069,0.206-0.275,0.206-0.62
	c0-0.338-0.068-0.547-0.206-0.617c-0.204-0.203-0.448-0.306-0.72-0.306h-1.646V19.121z M245.694,22.825V16.96
	c0-0.412,0.236-0.62,0.719-0.62h2.469c0.756,0,1.27,0.14,1.545,0.413c0.341,0.276,0.513,0.757,0.513,1.44
	c0,0.482-0.069,0.791-0.206,0.928c-0.272,0.344-0.514,0.55-0.72,0.617c0.273,0.138,0.479,0.275,0.617,0.412
	c0.137,0.273,0.206,0.585,0.206,0.924v0.823v0.258v0.261l0.049,0.253l0.26,0.155h-1.543c-0.068-0.206-0.1-0.341-0.1-0.408V22v-0.719
	c-0.143-0.412-0.246-0.685-0.31-0.826c-0.143-0.134-0.378-0.203-0.72-0.203h-1.442v2.572H245.694z M248.16,14.798
	c-0.614,0-1.236,0.103-1.854,0.309c-0.272,0.206-0.547,0.379-0.82,0.516c-0.276,0.135-0.516,0.307-0.722,0.513
	c-0.413,0.413-0.789,0.963-1.132,1.649c-0.275,0.822-0.412,1.473-0.412,1.953c0,0.412,0.137,1.029,0.412,1.854
	c0.138,0.342,0.479,0.857,1.027,1.545c0.413,0.408,0.961,0.786,1.646,1.129c0.617,0.206,1.239,0.31,1.854,0.31
	c0.62,0,1.236-0.104,1.854-0.31c0.685-0.342,1.233-0.72,1.646-1.129c0.479-0.481,0.823-0.997,1.029-1.545
	c0.275-0.548,0.41-1.169,0.41-1.854c0-0.683-0.098-1.304-0.309-1.853c-0.344-0.685-0.717-1.235-1.13-1.646
	c-0.344-0.344-0.858-0.722-1.543-1.132C249.503,14.901,248.847,14.798,248.16,14.798 M248.16,13.768c0.823,0,1.58,0.17,2.267,0.514
	c0.82,0.415,1.473,0.862,1.953,1.341c0.62,0.55,1.03,1.166,1.235,1.852c0.342,0.82,0.518,1.58,0.518,2.264
	c0,0.756-0.175,1.51-0.518,2.262c-0.342,0.759-0.754,1.374-1.235,1.854c-0.617,0.617-1.268,1.067-1.953,1.339
	c-0.961,0.276-1.717,0.41-2.267,0.41c-0.757,0-1.506-0.169-2.264-0.511c-0.686-0.276-1.341-0.686-1.956-1.238
	c-0.547-0.617-0.96-1.268-1.235-1.956c-0.273-0.616-0.41-1.334-0.41-2.159c0-0.412,0.066-0.96,0.204-1.648
	c0.069-0.206,0.157-0.427,0.258-0.668c0.103-0.238,0.223-0.496,0.361-0.772c0.479-0.961,1.199-1.646,2.159-2.061
	C246.104,14.044,247.062,13.768,248.16,13.768"/>
<path class="st0" d="M0,42.85V4.488c0-1.247,0.436-2.303,1.31-3.177c0.869-0.874,1.929-1.308,3.174-1.308h4.361v15.945h17.686V0.002
	h8.97V42.85h-8.97V23.794H8.845V42.85H0z"/>
<path class="st0" d="M64.848,42.85h-8.845V26.908L40.434,0.002h10.836l9.096,18.436l7.347-15.942
	c0.828-1.665,2.199-2.494,4.109-2.494h7.102L64.848,26.908V42.85z"/>
<path class="st0" d="M96.034,8.598l-5.978,18.184h11.955L96.034,8.598z M94.041,0h6.975l15.568,42.849h-9.341l-2.864-8.842H87.686
	l-2.741,8.842h-9.34l14.2-39.982C90.553,0.957,91.961,0,94.041,0"/>
<path class="st0" d="M132.631,35.127h10.462c2.322,0,4.111-0.45,5.355-1.368c1.164-0.826,1.745-2.244,1.745-4.235
	c0-1.993-0.58-3.443-1.745-4.361c-1.08-0.825-2.907-1.245-5.479-1.245h-10.338V35.127z M132.631,16.57h10.088
	c2.159,0,3.736-0.373,4.731-1.124c0.998-0.745,1.499-1.907,1.499-3.484c0-1.576-0.501-2.743-1.499-3.489
	c-0.829-0.663-2.446-0.997-4.856-0.997h-9.963V16.57z M124.158,42.85V4.488c0-1.247,0.438-2.303,1.31-3.177
	c0.872-0.874,1.93-1.31,3.174-1.31h15.696c4.4,0,7.763,0.917,10.089,2.74c2.32,1.996,3.487,4.695,3.487,8.099
	c0,2.162-0.456,3.987-1.37,5.481c-0.918,1.414-2.202,2.535-3.864,3.363c2.161,0.918,3.816,2.201,4.982,3.861
	c1.078,1.579,1.622,3.658,1.622,6.227c0,4.157-1.33,7.396-3.985,9.718c-2.74,2.241-6.603,3.362-11.585,3.362H124.158z"/>
<path class="st0" d="M185.498,8.598l-5.978,18.184h11.957L185.498,8.598z M183.505,0h6.976l15.568,42.849h-9.34l-2.867-8.842
	h-16.691l-2.74,8.842h-9.343l14.202-39.982C180.017,0.957,181.428,0,183.505,0"/>
<path class="st0" d="M212.773,42.85V4.488c0-1.247,0.436-2.303,1.308-3.177c0.871-0.874,1.927-1.308,3.174-1.308h4.36v17.563
	l16.693-17.563h11.086L232.2,17.317l18.686,25.533h-10.711l-10.836-15.197c-1.909-2.489-3.675-3.464-5.293-2.927
	c-1.62,0.544-2.431,1.557-2.431,3.054V42.85H212.773z"/>
</svg>