<!-- Generator: Adobe Illustrator 24.0.1, SVG Export Plug-In  -->
<svg version="1.1" xmlns="http://www.w3.org/2000/svg" xmlns:xlink="http://www.w3.org/1999/xlink" x="0px" y="0px"
	 width="243.226px" height="70.856px" viewBox="0 0 243.226 70.856" style="enable-background:new 0 0 243.226 70.856;"
	 xml:space="preserve">
<style type="text/css">
	.st0{fill:#3B3B3A;}
	.st1{clip-path:url(#SVGID_2_);fill:url(#SVGID_3_);}
	.st2{fill:#FFFFFF;}
	.st3{fill:#E4007D;}
	.st4{clip-path:url(#SVGID_5_);fill:url(#SVGID_6_);}
</style>
<defs>
</defs>
<path class="st0" d="M160.716,63.999h1.026l2.046,5.316h-1.052l-0.418-1.093h-2.167l-0.435,1.093h-1.05L160.716,63.999z
	 M161.235,65.41l-0.713,1.824h1.421L161.235,65.41z"/>
<polygon class="st0" points="164.295,65.384 167.305,65.384 165.539,68.481 167.205,68.481 167.205,69.315 164.022,69.315 
	165.797,66.219 164.295,66.219 "/>
<path class="st0" d="M168.249,63.763c0.175,0,0.321,0.063,0.447,0.189c0.123,0.124,0.184,0.278,0.184,0.455
	c0,0.177-0.061,0.327-0.183,0.451c-0.123,0.123-0.27,0.186-0.441,0.186c-0.175,0-0.326-0.065-0.448-0.19
	c-0.123-0.126-0.186-0.28-0.186-0.459c0-0.175,0.063-0.324,0.184-0.447C167.928,63.826,168.077,63.763,168.249,63.763
	 M167.758,65.383h0.987v3.931h-0.987V65.383z"/>
<polygon class="st0" points="169.759,63.935 170.747,63.935 170.747,65.383 171.332,65.383 171.332,66.232 170.747,66.232 
	170.747,69.314 169.759,69.314 169.759,66.232 169.253,66.232 169.253,65.383 169.759,65.383 "/>
<path class="st0" d="M171.629,65.384h0.846v0.496c0.091-0.195,0.212-0.344,0.365-0.445c0.151-0.101,0.318-0.152,0.498-0.152
	c0.127,0,0.261,0.034,0.402,0.101l-0.309,0.849l-0.286-0.088c-0.152,0-0.28,0.095-0.385,0.283c-0.103,0.189-0.157,0.556-0.157,1.107
	l0.005,0.192v1.588h-0.98V65.384z"/>
<path class="st0" d="M176.073,65.283c0.37,0,0.72,0.092,1.047,0.276c0.326,0.187,0.579,0.439,0.763,0.759
	c0.184,0.315,0.275,0.66,0.275,1.027c0,0.372-0.092,0.72-0.276,1.043c-0.183,0.322-0.436,0.574-0.754,0.756
	c-0.316,0.181-0.668,0.272-1.052,0.272c-0.562,0-1.044-0.198-1.444-0.6c-0.399-0.401-0.597-0.888-0.597-1.46
	c0-0.616,0.224-1.129,0.676-1.537C175.106,65.461,175.56,65.283,176.073,65.283 M176.09,66.212c-0.307,0-0.562,0.106-0.766,0.319
	c-0.204,0.213-0.306,0.485-0.306,0.819c0,0.341,0.1,0.619,0.303,0.831c0.2,0.213,0.456,0.319,0.765,0.319
	c0.309,0,0.567-0.107,0.773-0.324c0.204-0.212,0.309-0.488,0.309-0.826c0-0.336-0.101-0.611-0.304-0.823
	C176.661,66.318,176.405,66.212,176.09,66.212"/>
<path class="st0" d="M178.958,65.384h0.987v0.451c0.167-0.186,0.355-0.324,0.561-0.415c0.207-0.091,0.433-0.138,0.676-0.138
	c0.244,0,0.467,0.061,0.665,0.181c0.198,0.121,0.356,0.296,0.478,0.528c0.157-0.232,0.349-0.407,0.576-0.528
	c0.229-0.12,0.478-0.181,0.748-0.181c0.279,0,0.525,0.066,0.739,0.197c0.21,0.129,0.362,0.298,0.458,0.508
	c0.092,0.209,0.138,0.551,0.138,1.023v2.305h-0.994v-1.993c0-0.445-0.057-0.748-0.167-0.905c-0.109-0.16-0.276-0.238-0.498-0.238
	c-0.169,0-0.319,0.048-0.454,0.144c-0.132,0.097-0.232,0.229-0.298,0.399c-0.063,0.17-0.097,0.444-0.097,0.817v1.775h-0.995v-1.903
	c0-0.353-0.026-0.608-0.077-0.765c-0.052-0.158-0.131-0.275-0.233-0.353c-0.104-0.075-0.229-0.115-0.378-0.115
	c-0.164,0-0.312,0.049-0.447,0.146c-0.135,0.097-0.235,0.233-0.301,0.41c-0.064,0.178-0.098,0.455-0.098,0.831v1.749h-0.987V65.384z
	"/>
<path class="st0" d="M186.309,63.763c0.173,0,0.321,0.063,0.444,0.189c0.124,0.124,0.187,0.278,0.187,0.455
	c0,0.177-0.063,0.327-0.184,0.451c-0.124,0.123-0.27,0.186-0.441,0.186c-0.177,0-0.326-0.065-0.448-0.19
	c-0.123-0.126-0.186-0.28-0.186-0.459c0-0.175,0.063-0.324,0.183-0.447C185.988,63.826,186.135,63.763,186.309,63.763
	 M185.814,65.383h0.987v3.931h-0.987V65.383z"/>
<path class="st0" d="M191.547,66.178l-0.822,0.451c-0.155-0.16-0.306-0.273-0.458-0.335c-0.152-0.063-0.329-0.094-0.531-0.094
	c-0.367,0-0.667,0.109-0.894,0.329c-0.227,0.223-0.344,0.501-0.344,0.848c0,0.335,0.111,0.608,0.33,0.819
	c0.22,0.212,0.508,0.318,0.865,0.318c0.442,0,0.786-0.152,1.032-0.453l0.779,0.533c-0.422,0.55-1.017,0.823-1.786,0.823
	c-0.693,0-1.232-0.204-1.625-0.614c-0.39-0.408-0.588-0.888-0.588-1.439c0-0.381,0.097-0.731,0.287-1.05
	c0.19-0.321,0.456-0.573,0.797-0.756c0.339-0.183,0.722-0.275,1.143-0.275c0.392,0,0.74,0.077,1.052,0.232
	C191.096,65.67,191.349,65.891,191.547,66.178"/>
<path class="st0" d="M192.821,63.763c0.173,0,0.321,0.063,0.445,0.189c0.123,0.124,0.186,0.278,0.186,0.455
	c0,0.177-0.063,0.327-0.184,0.451c-0.123,0.123-0.269,0.186-0.441,0.186c-0.175,0-0.324-0.065-0.448-0.19
	c-0.123-0.126-0.186-0.28-0.186-0.459c0-0.175,0.063-0.324,0.184-0.447C192.5,63.826,192.649,63.763,192.821,63.763 M192.328,65.383
	h0.987v3.931h-0.987V65.383z"/>
<path class="st0" d="M194.212,65.384h0.987v0.402c0.223-0.189,0.424-0.318,0.607-0.393c0.181-0.074,0.367-0.111,0.557-0.111
	c0.392,0,0.72,0.135,0.994,0.408c0.229,0.232,0.342,0.576,0.342,1.027v2.597h-0.977v-1.721c0-0.468-0.02-0.78-0.061-0.935
	c-0.043-0.154-0.117-0.27-0.22-0.352c-0.106-0.08-0.235-0.12-0.389-0.12c-0.2,0-0.37,0.066-0.516,0.201
	c-0.141,0.132-0.241,0.316-0.295,0.553c-0.031,0.121-0.043,0.39-0.043,0.799v1.576h-0.987V65.384z"/>
<path class="st0" d="M201.556,65.384h0.987v3.931h-0.987v-0.415c-0.192,0.183-0.386,0.315-0.579,0.396
	c-0.195,0.081-0.404,0.12-0.63,0.12c-0.507,0-0.947-0.197-1.319-0.59c-0.37-0.395-0.554-0.885-0.554-1.47
	c0-0.608,0.18-1.104,0.536-1.493c0.358-0.389,0.795-0.582,1.307-0.582c0.236,0,0.459,0.046,0.665,0.134
	c0.207,0.089,0.399,0.223,0.574,0.399V65.384z M200.519,66.193c-0.304,0-0.559,0.108-0.76,0.324
	c-0.201,0.215-0.302,0.491-0.302,0.828c0,0.341,0.103,0.62,0.307,0.84c0.206,0.218,0.459,0.329,0.759,0.329
	c0.31,0,0.567-0.107,0.769-0.324c0.206-0.217,0.307-0.499,0.307-0.848c0-0.341-0.101-0.617-0.307-0.831
	C201.089,66.298,200.831,66.193,200.519,66.193"/>
<polygon class="st0" points="206.33,63.999 207.843,63.999 207.843,69.315 206.84,69.315 206.84,64.949 205.745,64.949 "/>
<path class="st0" d="M210.492,63.999h2.491v0.937h-1.734l-0.217,0.964l0.175-0.037l0.167-0.012c0.481,0,0.883,0.164,1.202,0.493
	c0.318,0.33,0.478,0.751,0.478,1.262c0,0.519-0.175,0.955-0.528,1.311c-0.355,0.355-0.783,0.531-1.288,0.531
	c-0.455,0-0.843-0.127-1.169-0.385c-0.326-0.26-0.537-0.613-0.639-1.06h1.061c0.083,0.166,0.192,0.293,0.324,0.378
	c0.134,0.088,0.283,0.129,0.444,0.129c0.223,0,0.415-0.081,0.571-0.243c0.155-0.161,0.233-0.367,0.233-0.622
	c0-0.246-0.074-0.447-0.218-0.605c-0.144-0.158-0.322-0.236-0.528-0.236l-0.329,0.083l-0.316,0.25l-0.823-0.186L210.492,63.999z"/>
<path class="st0" d="M213.894,65.384h0.987v0.451c0.167-0.186,0.355-0.324,0.561-0.415c0.207-0.091,0.431-0.138,0.676-0.138
	c0.246,0,0.467,0.061,0.665,0.181c0.198,0.121,0.356,0.296,0.478,0.528c0.157-0.232,0.349-0.407,0.576-0.528
	c0.229-0.12,0.479-0.181,0.748-0.181c0.279,0,0.525,0.066,0.739,0.197c0.21,0.129,0.362,0.298,0.458,0.508
	c0.092,0.209,0.138,0.551,0.138,1.023v2.305h-0.992v-1.993c0-0.445-0.057-0.748-0.169-0.905c-0.109-0.16-0.276-0.238-0.498-0.238
	c-0.169,0-0.319,0.048-0.453,0.144c-0.134,0.097-0.233,0.229-0.299,0.399c-0.063,0.17-0.097,0.444-0.097,0.817v1.775h-0.994v-1.903
	c0-0.353-0.026-0.608-0.078-0.765c-0.051-0.158-0.129-0.275-0.233-0.353c-0.104-0.075-0.229-0.115-0.378-0.115
	c-0.164,0-0.313,0.049-0.447,0.146c-0.134,0.097-0.235,0.233-0.301,0.41c-0.064,0.178-0.098,0.455-0.098,0.831v1.749h-0.987V65.384z
	"/>
<path class="st0" d="M223.766,65.383h0.981v3.369c0,0.663-0.134,1.153-0.401,1.47c-0.358,0.422-0.9,0.634-1.623,0.634
	c-0.384,0-0.71-0.049-0.972-0.146c-0.263-0.095-0.484-0.238-0.665-0.424c-0.181-0.189-0.313-0.413-0.401-0.682h1.087
	c0.097,0.112,0.22,0.195,0.372,0.253c0.152,0.055,0.333,0.084,0.539,0.084c0.266,0,0.478-0.041,0.639-0.126
	c0.164-0.08,0.276-0.187,0.342-0.318c0.066-0.129,0.101-0.352,0.101-0.671c-0.175,0.174-0.356,0.298-0.547,0.375
	c-0.19,0.075-0.407,0.112-0.647,0.112c-0.53,0-0.974-0.189-1.338-0.568c-0.364-0.381-0.547-0.865-0.547-1.448
	c0-0.622,0.192-1.124,0.579-1.502c0.349-0.342,0.766-0.514,1.25-0.514c0.226,0,0.439,0.041,0.64,0.126
	c0.203,0.083,0.404,0.22,0.608,0.408V65.383z M222.742,66.203c-0.312,0-0.568,0.106-0.769,0.315
	c-0.204,0.207-0.306,0.468-0.306,0.785c0,0.329,0.106,0.597,0.312,0.806c0.209,0.21,0.467,0.315,0.782,0.315
	c0.306,0,0.557-0.101,0.757-0.307c0.198-0.206,0.298-0.475,0.298-0.806c0-0.329-0.1-0.594-0.301-0.799
	C223.315,66.306,223.057,66.203,222.742,66.203"/>
<polygon class="st0" points="225.402,70.262 227.788,63.847 228.493,63.847 226.104,70.262 "/>
<path class="st0" d="M232.055,65.383h0.983v3.369c0,0.663-0.134,1.153-0.402,1.47c-0.356,0.422-0.9,0.634-1.622,0.634
	c-0.384,0-0.71-0.049-0.972-0.146c-0.263-0.095-0.484-0.238-0.665-0.424c-0.181-0.189-0.315-0.413-0.401-0.682h1.087
	c0.097,0.112,0.22,0.195,0.372,0.253c0.152,0.055,0.332,0.084,0.539,0.084c0.266,0,0.478-0.041,0.639-0.126
	c0.163-0.08,0.276-0.187,0.342-0.318c0.066-0.129,0.1-0.352,0.1-0.671c-0.173,0.174-0.356,0.298-0.545,0.375
	c-0.19,0.075-0.407,0.112-0.648,0.112c-0.528,0-0.972-0.189-1.336-0.568c-0.364-0.381-0.547-0.865-0.547-1.448
	c0-0.622,0.192-1.124,0.579-1.502c0.349-0.342,0.766-0.514,1.25-0.514c0.226,0,0.439,0.041,0.64,0.126
	c0.203,0.083,0.402,0.22,0.607,0.408V65.383z M231.033,66.203c-0.312,0-0.568,0.106-0.769,0.315
	c-0.204,0.207-0.306,0.468-0.306,0.785c0,0.329,0.106,0.597,0.312,0.806c0.209,0.21,0.467,0.315,0.782,0.315
	c0.306,0,0.558-0.101,0.757-0.307c0.198-0.206,0.298-0.475,0.298-0.806c0-0.329-0.101-0.594-0.301-0.799
	C231.605,66.306,231.347,66.203,231.033,66.203"/>
<g>
	<defs>
		<path id="SVGID_1_" d="M0.742,58.668c0,3.893,14.169,7.053,31.786,7.129h1.29c17.614-0.075,31.79-3.236,31.79-7.129
			c0-3.934-14.523-7.129-32.435-7.129C15.26,51.539,0.742,54.734,0.742,58.668"/>
	</defs>
	<clipPath id="SVGID_2_">
		<use xlink:href="#SVGID_1_"  style="overflow:visible;"/>
	</clipPath>
	
		<radialGradient id="SVGID_3_" cx="-1637.2366" cy="-920.8" r="1.5356" gradientTransform="matrix(21.1184 0 0 -4.6425 34609.0039 -4216.1572)" gradientUnits="userSpaceOnUse">
		<stop  offset="0" style="stop-color:#C6C6C7"/>
		<stop  offset="0.1955" style="stop-color:#D1D1D2"/>
		<stop  offset="1" style="stop-color:#FFFFFF"/>
	</radialGradient>
	<rect x="0.741" y="51.539" class="st1" width="64.866" height="14.257"/>
</g>
<path class="st2" d="M37.599,17.619c-3.753,0-7.585,0.556-11.384,1.649c-3.223,0.928-6.447,2.247-9.575,3.924
	c-6.794,3.639-10.931,7.712-12.036,8.875c-0.57,0.6-1.53,1.837-1.53,3.355c0,1.817,0.935,2.936,1.387,3.475
	c1.242,1.49,4.817,5.309,11.086,8.555c6.577,3.408,13.996,5.134,22.052,5.134c8.348,0,13.546-2.942,16.436-5.413
	c3.719-3.176,5.854-7.463,5.854-11.759c0-4.41-2.119-8.832-5.811-12.126C51.182,20.702,45.97,17.619,37.599,17.619"/>
<path class="st0" d="M54.026,20.192c-0.68-0.462-0.92-1.348-0.564-2.118l4.705-9.828c0.577-1.236,0.043-2.709-1.196-3.282
	c-1.233-0.579-2.704-0.043-3.28,1.192l-4.69,9.796c-0.365,0.783-1.248,1.159-2.052,0.909c-1.838-0.571-3.811-1.041-5.977-1.252
	c-0.863-0.086-1.534-0.814-1.534-1.7V2.471C39.439,1.107,38.333,0,36.966,0c-1.365,0-2.471,1.107-2.471,2.471v11.547
	c0,0.874-0.657,1.594-1.507,1.692c-2.09,0.24-4.136,0.633-6.124,1.144c-0.782,0.207-1.622-0.17-1.976-0.931l-4.619-9.767
	c-0.579-1.235-2.047-1.771-3.286-1.192c-1.235,0.573-1.769,2.045-1.195,3.282l4.26,9c0.395,0.854,0.028,1.867-0.825,2.265
	l-0.031,0.014C9.758,23.66,2.73,29.956,0.633,33.588C0.333,34.107,0,34.775,0,35.414c0,1.11,0.387,1.854,0.734,2.406
	c2.889,4.61,14.3,17.563,36.865,17.563c19.415,0,25.997-13.701,25.997-19.97C63.596,30.165,60.442,24.385,54.026,20.192
	 M37.582,50.342c-17.602,0-27.209-7.998-30.681-12.153c-0.749-0.932-1.1-1.824-1.1-2.767c0-0.866,0.537-1.654,1.009-2.225
	c3.971-4.171,15.575-13.34,30.771-13.34c13.213,0,20.026,8.411,20.026,15.558C57.609,42.327,50.778,50.342,37.582,50.342"/>
<path class="st3" d="M29.407,35.414c0,3.114-2.525,5.639-5.637,5.639c-3.114,0-5.641-2.525-5.641-5.639
	c0-3.113,2.526-5.637,5.641-5.637C26.882,29.777,29.407,32.301,29.407,35.414"/>
<path class="st2" d="M25.041,37.063c0.326,0,0.577,0.147,0.577,0.488c0,0.342-0.252,0.491-0.533,0.491h-2.477
	c-0.327,0-0.579-0.149-0.579-0.491c0-0.154,0.097-0.287,0.17-0.376c0.614-0.734,1.284-1.402,1.847-2.219
	c0.132-0.194,0.258-0.422,0.258-0.69c0-0.304-0.229-0.571-0.533-0.571c-0.854,0-0.445,1.201-1.158,1.201
	c-0.355,0-0.541-0.25-0.541-0.541c0-0.935,0.831-1.683,1.744-1.683c0.911,0,1.645,0.599,1.645,1.543c0,1.03-1.15,2.053-1.78,2.847
	H25.041z"/>
<path class="st3" d="M51.998,35.414c0,5.536-4.489,10.025-10.026,10.025c-5.535,0-10.023-4.489-10.023-10.025
	c0-5.536,4.489-10.023,10.023-10.023C47.509,25.391,51.998,29.878,51.998,35.414"/>
<path class="st2" d="M44.822,32.91c0,0.843-0.361,1.579-1.097,2.045c0.963,0.442,1.632,1.339,1.632,2.396
	c0,1.606-1.473,2.956-3.371,2.956c-1.979,0-3.211-1.457-3.211-2.514c0-0.522,0.548-0.897,1.029-0.897
	c0.911,0,0.697,1.565,2.208,1.565c0.696,0,1.258-0.534,1.258-1.244c0-1.872-2.274-0.495-2.274-2.075c0-1.404,1.9-0.455,1.9-1.94
	c0-0.508-0.361-0.897-0.963-0.897c-1.27,0-1.096,1.313-2.007,1.313c-0.548,0-0.869-0.496-0.869-0.99
	c0-1.043,1.431-2.168,2.916-2.168C43.899,30.46,44.822,31.867,44.822,32.91"/>
<path class="st0" d="M106.204,47.607c2.426,0,4.16,1.316,4.16,3.776c0,2.176-2.079,3.776-4.16,3.776H83.494
	c-3.062,0-4.853-1.717-4.853-4.119c0-1.146,0.404-2.288,1.155-3.319l18.606-25.747H83.204c-2.31,0-4.043-1.318-4.043-3.663
	c0-2.173,1.849-3.891,4.043-3.891h21.151c3.351,0,4.854,2.118,4.854,4.119c0,1.261-0.521,2.69-1.272,3.664L89.447,47.607H106.204z"
	/>
<path class="st0" d="M122.787,36.051l-10.92-15.221c-0.521-0.743-0.809-1.658-0.809-2.574c0-2.288,1.734-4.177,4.16-4.177
	c1.503,0,2.832,0.63,3.583,1.718l8.322,11.957l8.322-11.957c0.749-1.089,2.078-1.718,3.581-1.718c2.428,0,4.16,1.889,4.16,4.177
	c0,0.915-0.289,1.83-0.809,2.574l-10.922,15.221v15.277c0,2.116-1.27,4.177-4.332,4.177c-3.064,0-4.335-2.061-4.335-4.177V36.051z"
	/>
<path class="st0" d="M155.551,22.318h-6.298c-2.775,0-3.93-2.002-3.93-3.947c0-2.004,1.445-3.948,3.93-3.948h21.264
	c2.485,0,3.93,1.944,3.93,3.948c0,1.944-1.156,3.947-3.93,3.947h-6.298v28.724c0,2.859-1.85,4.461-4.335,4.461
	c-2.483,0-4.334-1.602-4.334-4.461V22.318z"/>
<path class="st0" d="M176.355,19.4c0-2.861,1.445-4.979,4.507-4.979h14.331c2.773,0,4.102,1.946,4.102,3.948
	c0,1.946-1.387,3.948-4.102,3.948h-10.171v8.354h9.476c2.832,0,4.218,1.944,4.218,3.948c0,1.946-1.445,3.948-4.218,3.948h-9.476
	v8.698h10.69c2.773,0,4.103,1.944,4.103,3.947c0,1.944-1.387,3.948-4.103,3.948h-14.908c-2.542,0-4.449-1.718-4.449-4.292V19.4z"/>
<path class="st0" d="M204.496,18.884c0-2.744,1.56-4.463,4.449-4.463h10.171c8.899,0,14.388,3.948,14.388,12.932
	c0,6.293-4.794,9.897-10.69,10.814l9.824,10.412c0.809,0.858,1.156,1.718,1.156,2.518c0,2.233-1.792,4.406-4.335,4.406
	c-1.04,0-2.426-0.401-3.351-1.487l-12.829-15.392h-0.115v12.416c0,2.861-1.85,4.463-4.334,4.463c-2.485,0-4.334-1.602-4.334-4.463
	V18.884z M213.163,32.446h5.952c3.177,0,5.375-1.889,5.375-5.092c0-3.26-2.198-5.035-5.375-5.035h-5.952V32.446z"/>
<path class="st0" d="M239.1,11.762c2.277,0,4.126,1.832,4.126,4.086c0,2.254-1.849,4.086-4.126,4.086
	c-2.277,0-4.129-1.832-4.129-4.086C234.971,13.594,236.823,11.762,239.1,11.762 M239.1,18.936c1.726,0,3.117-1.377,3.117-3.088
	c0-1.711-1.391-3.087-3.117-3.087c-1.728,0-3.119,1.376-3.119,3.087C235.981,17.559,237.372,18.936,239.1,18.936 M238.447,17.604
	c0,0.31-0.111,0.533-0.504,0.533c-0.392,0-0.505-0.178-0.505-0.533v-3.432c0-0.255,0.091-0.467,0.516-0.467h1.269
	c0.909,0,1.671,0.267,1.671,1.301c0,0.786-0.402,1.189-1.121,1.222l0.797,1.285l0.066,0.235c0,0.244-0.157,0.389-0.527,0.389
	c-0.359,0-0.471-0.267-0.616-0.533l-0.708-1.31h-0.338V17.604z M239.291,15.494c0.37,0,0.594-0.089,0.594-0.488
	c0-0.401-0.224-0.501-0.594-0.501h-0.843v0.989H239.291z"/>
</svg>