<!-- Generator: Adobe Illustrator 24.0.1, SVG Export Plug-In  -->
<svg version="1.1" xmlns="http://www.w3.org/2000/svg" xmlns:xlink="http://www.w3.org/1999/xlink" x="0px" y="0px"
	 width="250.325px" height="46.336px" viewBox="0 0 250.325 46.336" style="enable-background:new 0 0 250.325 46.336;"
	 xml:space="preserve">
<style type="text/css">
	.st0{fill:#9F1074;}
	.st1{fill:#8E8E8D;}
</style>
<defs>
</defs>
<path d="M141.286,32.704c-1.685-1.087-2.337-2.537-2.337-5.676V15.723l-0.008-0.144V9.637l0.008-0.155v-9.38l-5.656,1.751V9.58
	h-0.005v5.915h0.005v12.681c0,6.097,2.718,8.329,8.537,11.407l2.502-4.949L141.286,32.704z"/>
<path d="M176.278,9.073h3.206V1.76l5.656-1.658v8.971h4.512v5.599h-4.512v10.912c0,2.971,0.653,4.343,2.337,5.372l3.047,1.827
	l-2.503,4.685c-5.817-2.913-8.537-5.026-8.537-10.797v-12h-3.206V9.073z"/>
<path d="M249.639,4.032c0.447,0.447,0.686,1.04,0.686,1.68c0,0.654-0.24,1.227-0.686,1.666c-0.467,0.461-1.067,0.714-1.694,0.714
	c-0.633,0-1.219-0.253-1.672-0.706c-0.455-0.453-0.7-1.043-0.7-1.674c0-0.627,0.246-1.229,0.705-1.694
	c0.441-0.448,1.021-0.686,1.668-0.686C248.593,3.332,249.186,3.577,249.639,4.032 M249.471,4.198
	c-0.412-0.415-0.946-0.634-1.526-0.634c-0.579,0-1.107,0.22-1.5,0.62c-0.413,0.421-0.639,0.961-0.639,1.528s0.226,1.1,0.633,1.507
	c0.407,0.405,0.94,0.633,1.506,0.633c0.561,0,1.107-0.227,1.526-0.639c0.402-0.393,0.62-0.914,0.62-1.5
	C250.092,5.13,249.874,4.599,249.471,4.198 M249.153,5.058c0,0.381-0.255,0.666-0.662,0.714l0.62,1.281h-0.427l-0.593-1.227h-0.694
	v1.227h-0.375V4.298h0.995C248.779,4.298,249.153,4.525,249.153,5.058 M247.398,4.551v1.021h0.547c0.58,0,0.826-0.108,0.826-0.527
	c0-0.347-0.273-0.495-0.826-0.495H247.398z"/>
<path d="M62.73,23.302c0,7.522-6.13,13.549-13.598,13.549c-7.469,0-13.6-6.027-13.6-13.549c0-7.469,6.13-13.548,13.6-13.548
	C56.6,9.754,62.73,15.833,62.73,23.302 M49.132,14.956c-4.584,0-8.294,3.762-8.294,8.346c0,4.584,3.71,8.345,8.294,8.345
	c4.584,0,8.345-3.761,8.345-8.345C57.477,18.718,53.716,14.956,49.132,14.956"/>
<path d="M76.296,15.101c-2.575,0-4.43,1.133-5.719,2.525v18.853h-5.218V12.024l2.542,1.222c0,0,2.677-3.348,8.395-3.348
	c9.016,0,12.466,6.439,12.466,13.136v13.445h-5.151V24.218C83.611,19.017,81.859,15.101,76.296,15.101"/>
<path d="M234.108,15.101c-2.575,0-4.43,1.133-5.719,2.525v18.853h-5.218V12.024l2.542,1.222c0,0,2.677-3.348,8.395-3.348
	c9.014,0,12.468,6.439,12.468,13.136v13.445h-5.152V24.218C241.424,19.017,239.672,15.101,234.108,15.101"/>
<path d="M171.53,22.808c0,7.522-6.13,13.548-13.598,13.548c-7.469,0-13.6-6.026-13.6-13.548c0-7.471,6.13-13.549,13.6-13.549
	C165.4,9.259,171.53,15.337,171.53,22.808 M157.932,14.462c-4.586,0-8.294,3.761-8.294,8.346c0,4.584,3.709,8.345,8.294,8.345
	c4.584,0,8.345-3.761,8.345-8.345C166.277,18.222,162.516,14.462,157.932,14.462"/>
<path class="st0" d="M117.531,23.924c0,3.626-2.939,6.566-6.565,6.566c-3.626,0-6.566-2.941-6.566-6.566
	c0-3.627,3.572-6.643,6.566-12.655C114.337,18.405,117.531,20.297,117.531,23.924"/>
<path d="M99.567,21.383c0-0.376,0.018-0.749,0.052-1.118l-5.025-8.701c-1.886,2.942-2.879,6.376-2.879,9.819
	c0,9.137,6.995,18.202,19.057,18.202l-4.564-7.907C102.185,29.963,99.567,26.012,99.567,21.383"/>
<path d="M121.927,20.267c0.034,0.367,0.054,0.739,0.054,1.118c0,4.627-2.62,8.58-6.643,10.293l-4.564,7.907
	c12.063,0,19.057-9.065,19.057-18.201c0-3.444-0.994-6.878-2.879-9.821L121.927,20.267z"/>
<path class="st0" d="M110.773,32.591c-1.654,0-3.193-0.327-4.566-0.914l4.566,7.909l4.567-7.909
	C113.965,32.264,112.428,32.591,110.773,32.591"/>
<path class="st0" d="M110.773,10.177c6.101,0,10.627,4.409,11.153,10.089l5.026-8.703c-3.116-4.862-8.664-8.382-16.18-8.382
	c-7.516,0-13.064,3.52-16.178,8.382l5.025,8.703C100.146,14.586,104.672,10.177,110.773,10.177"/>
<polygon points="16.26,18.287 0.835,0 0.835,36.522 2.378,36.522 5.224,36.522 6.283,36.522 6.283,14.283 16.26,26.065 
	26.531,13.892 26.531,36.522 27.256,36.522 30.434,36.522 31.643,36.522 31.643,0 "/>
<rect x="166.237" y="10.758" width="5.293" height="25.596"/>
<path d="M219.112,22.808c0,7.522-6.13,13.548-13.598,13.548c-7.469,0-13.598-6.026-13.598-13.548
	c0-7.471,6.129-13.549,13.598-13.549C212.982,9.259,219.112,15.337,219.112,22.808 M205.514,14.462
	c-4.584,0-8.294,3.761-8.294,8.346c0,4.584,3.71,8.345,8.294,8.345c4.584,0,8.345-3.761,8.345-8.345
	C213.859,18.222,210.098,14.462,205.514,14.462"/>
<rect x="213.821" y="10.758" width="5.292" height="25.596"/>
<path class="st1" d="M0.02,42.011c0-1.143,0.527-1.245,1.583-1.245c0.923,0,1.593,0.04,1.54,1.207H2.66
	c-0.025-0.749-0.167-0.777-1.075-0.777c-0.948,0-1.08,0.118-1.08,0.713c0,0.815,0.389,0.749,1.187,0.771
	c1.017,0.058,1.531,0.029,1.531,1.187c0,1.212-0.571,1.25-1.651,1.25c-1.089,0-1.655-0.131-1.563-1.37h0.485
	c-0.011,0.944,0.17,0.944,1.078,0.944c0.914,0,1.167,0,1.167-0.84c0-0.817-0.367-0.68-1.149-0.743
	C0.745,43.04,0.02,43.141,0.02,42.011"/>
<path class="st1" d="M6.099,42.053c1.115,0,1.33,0.267,1.33,1.534c0,1.262-0.215,1.531-1.33,1.531c-1.113,0-1.33-0.269-1.33-1.531
	C4.769,42.32,4.985,42.053,6.099,42.053 M6.099,44.752c0.805,0,0.863-0.126,0.863-1.166c0-1.044-0.058-1.17-0.863-1.17
	c-0.803,0-0.862,0.126-0.862,1.17C5.237,44.627,5.295,44.752,6.099,44.752"/>
<rect x="9.179" y="40.8" class="st1" width="0.451" height="4.283"/>
<path class="st1" d="M13.475,44.684h-0.012c-0.16,0.365-0.542,0.433-0.935,0.433c-0.794,0-1.075-0.319-1.075-1.107v-1.924h0.451
	v1.924c0,0.484,0.035,0.742,0.616,0.742c0.636,0,0.96-0.101,0.96-0.817v-1.849h0.451v2.998h-0.456V44.684z"/>
<path class="st1" d="M18.28,43.998v0.166c0,0.846-0.559,0.954-1.273,0.954c-1.245,0-1.33-0.479-1.33-1.594
	c0-0.975,0.17-1.473,1.255-1.473c0.726,0,1.296,0.081,1.296,0.931v0.08h-0.451v-0.091c0-0.542-0.296-0.554-0.814-0.554
	c-0.802,0-0.82,0.273-0.82,1.235c0,0.843,0.035,1.101,0.917,1.101c0.564,0,0.769-0.063,0.769-0.605v-0.149H18.28z"/>
<path class="st1" d="M20.417,41.298h-0.451v-0.496h0.451V41.298z M20.417,45.083h-0.451v-2.999h0.451V45.083z"/>
<path class="st1" d="M23.497,42.052c1.112,0,1.331,0.269,1.331,1.536c0,1.261-0.22,1.53-1.331,1.53c-1.113,0-1.331-0.269-1.331-1.53
	C22.166,42.321,22.384,42.052,23.497,42.052 M23.497,44.753c0.805,0,0.862-0.127,0.862-1.166c0-1.046-0.057-1.17-0.862-1.17
	c-0.806,0-0.863,0.124-0.863,1.17C22.634,44.626,22.691,44.753,23.497,44.753 M24.033,41.149l-0.92,0.571l-0.154-0.233l0.851-0.645
	L24.033,41.149z"/>
<path class="st1" d="M27.033,42.451h0.012c0.143-0.359,0.582-0.399,0.924-0.399c0.771,0,1.143,0.204,1.13,1.038v1.995h-0.451v-2.027
	c0-0.548-0.21-0.64-0.72-0.64c-0.734,0-0.895,0.227-0.895,0.918v1.749h-0.451v-2.999h0.451V42.451z"/>
<path class="st1" d="M35.226,42.053c1.113,0,1.33,0.267,1.33,1.534c0,1.262-0.217,1.531-1.33,1.531c-1.113,0-1.33-0.269-1.33-1.531
	C33.896,42.32,34.113,42.053,35.226,42.053 M35.226,44.752c0.805,0,0.861-0.126,0.861-1.166c0-1.044-0.057-1.17-0.861-1.17
	c-0.805,0-0.863,0.126-0.863,1.17C34.363,44.627,34.421,44.752,35.226,44.752"/>
<path class="st1" d="M39.665,42.085v0.365h-0.794v2.634h-0.451v-2.634h-0.456v-0.365h0.456v-0.358c0-0.733,0.229-0.96,0.966-0.96
	l0.279,0.009v0.367l-0.279-0.012c-0.451,0-0.514,0.149-0.514,0.548v0.405H39.665z"/>
<path class="st1" d="M42.682,42.451h-1.159v1.901c0.006,0.326,0.091,0.401,0.422,0.401c0.422,0,0.422-0.223,0.422-0.51v-0.223h0.428
	v0.223c0,0.596-0.244,0.874-0.863,0.874c-0.7,0-0.862-0.2-0.862-0.901v-1.764h-0.399v-0.365h0.399v-0.725h0.451v0.725h1.159V42.451z
	"/>
<path class="st1" d="M46.28,45.085v-0.31l-0.011-0.011c-0.172,0.342-0.611,0.353-0.987,0.353c-0.673,0-1.143-0.126-1.143-0.906
	c0-0.829,0.428-0.943,1.172-0.943c0.296,0,0.878,0.028,0.941,0.303h0.028v-0.556c0-0.547-0.289-0.597-0.799-0.597
	c-0.353,0-0.788,0-0.783,0.41v0.103h-0.467v-0.061c0-0.772,0.53-0.825,1.199-0.817c0.754-0.008,1.307,0.075,1.302,0.987v2.045H46.28
	z M46.269,44.193c0-0.565-0.336-0.559-0.908-0.559c-0.537,0-0.752,0.034-0.752,0.521c0,0.57,0.233,0.599,0.752,0.599
	C45.813,44.753,46.269,44.742,46.269,44.193 M46.023,41.149l-0.918,0.571l-0.155-0.233l0.851-0.645L46.023,41.149z"/>
<rect x="48.569" y="40.8" class="st1" width="0.45" height="4.283"/>
<path class="st1" d="M51.292,42.548h0.012c0.158-0.389,0.617-0.496,1-0.496c0.358,0,0.822,0.103,0.924,0.496
	c0.2-0.399,0.66-0.496,1.069-0.496c0.769,0,1.038,0.313,1.038,1.055v1.976h-0.451v-1.929c0-0.51-0.074-0.737-0.657-0.737
	c-0.639,0-0.914,0.183-0.914,0.828v1.838h-0.45v-2.009c-0.018-0.401-0.018-0.657-0.67-0.657c-0.593,0-0.901,0.25-0.901,0.863v1.803
	h-0.45v-2.998h0.45V42.548z"/>
<path class="st1" d="M57.617,41.298h-0.451v-0.496h0.451V41.298z M57.617,45.083h-0.451v-2.999h0.451V45.083z"/>
<path class="st1" d="M61.952,43.998v0.166c0,0.846-0.561,0.954-1.273,0.954c-1.245,0-1.331-0.479-1.331-1.594
	c0-0.975,0.174-1.473,1.258-1.473c0.725,0,1.295,0.081,1.295,0.931v0.08h-0.45v-0.091c0-0.542-0.298-0.554-0.817-0.554
	c-0.799,0-0.817,0.273-0.817,1.235c0,0.843,0.035,1.101,0.915,1.101c0.564,0,0.771-0.063,0.771-0.605v-0.149H61.952z"/>
<path class="st1" d="M65.672,45.085v-0.312l-0.012-0.009c-0.17,0.342-0.611,0.353-0.989,0.353c-0.673,0-1.141-0.124-1.141-0.906
	c0-0.829,0.43-0.944,1.172-0.944c0.296,0,0.878,0.029,0.941,0.304h0.029v-0.554c0-0.548-0.292-0.599-0.8-0.599
	c-0.355,0-0.788,0-0.782,0.412v0.101h-0.47v-0.063c0-0.771,0.533-0.822,1.199-0.815c0.756-0.006,1.308,0.074,1.304,0.987v2.045
	H65.672z M65.66,44.193c0-0.565-0.336-0.56-0.906-0.56c-0.539,0-0.756,0.034-0.756,0.521c0,0.57,0.233,0.599,0.756,0.599
	C65.204,44.752,65.66,44.741,65.66,44.193"/>
<path class="st1" d="M73.528,44.176v0.109c0,0.794-0.611,0.832-1.279,0.832c-1.172,0-1.348-0.389-1.348-1.53
	c0-1.245,0.273-1.536,1.348-1.536c0.971,0,1.279,0.223,1.279,1.331v0.301h-2.159c0,0.948,0.068,1.069,0.88,1.069
	c0.616,0,0.815-0.04,0.815-0.462v-0.115H73.528z M73.059,43.319c-0.023-0.851-0.124-0.901-0.809-0.901
	c-0.819,0-0.846,0.21-0.88,0.901H73.059z"/>
<path class="st1" d="M77.658,42.868H77.19v-0.115c0-0.301-0.229-0.301-0.703-0.301c-0.564,0-0.839-0.008-0.839,0.364
	c0,0.536,0.15,0.498,0.616,0.521c0.772,0.046,1.474-0.075,1.474,0.901c0,0.846-0.582,0.88-1.252,0.88c-0.65,0-1.33-0.034-1.33-0.703
	v-0.279h0.468v0.235c0,0.286,0.178,0.349,0.862,0.349c0.31,0,0.783,0.068,0.783-0.462c0-0.561-0.233-0.458-0.783-0.493
	c-0.65-0.045-1.307,0.025-1.307-0.828c0-0.868,0.496-0.883,1.307-0.883c0.527,0,1.172,0.021,1.172,0.7V42.868z"/>
<path class="st1" d="M81.002,42.451h-1.159v1.901c0.006,0.326,0.091,0.401,0.422,0.401c0.422,0,0.422-0.223,0.422-0.51v-0.223h0.428
	v0.223c0,0.596-0.246,0.874-0.862,0.874c-0.702,0-0.863-0.2-0.863-0.901v-1.764h-0.399v-0.365h0.399v-0.725h0.451v0.725h1.159
	V42.451z"/>
<path class="st1" d="M85.102,44.176v0.109c0,0.794-0.61,0.832-1.278,0.832c-1.17,0-1.348-0.387-1.348-1.53
	c0-1.245,0.273-1.536,1.348-1.536c0.971,0,1.278,0.223,1.278,1.33v0.303h-2.158c0,0.949,0.069,1.069,0.88,1.069
	c0.616,0,0.817-0.041,0.817-0.462v-0.115H85.102z M84.635,43.319c-0.022-0.851-0.126-0.901-0.811-0.901
	c-0.817,0-0.846,0.21-0.88,0.901H84.635z M84.332,41.149l-0.92,0.571l-0.155-0.233l0.852-0.645L84.332,41.149z"/>
<path class="st1" d="M87.241,42.085l-0.023,0.372l0.012,0.012c0.154-0.332,0.514-0.416,0.851-0.416c0.576,0,0.832,0.286,0.832,0.843
	v0.218h-0.427v-0.201c0-0.372-0.126-0.496-0.504-0.496c-0.559,0-0.742,0.269-0.729,0.799v1.869h-0.451v-2.999H87.241z"/>
<path class="st1" d="M90.898,41.298h-0.45v-0.496h0.45V41.298z M90.898,45.083h-0.45v-2.999h0.45V45.083z"/>
<rect x="92.739" y="40.8" class="st1" width="0.45" height="4.283"/>
<polygon class="st1" points="171.938,44.611 174.12,44.611 174.12,45.039 171.453,45.039 171.453,40.758 171.938,40.758 "/>
<path class="st1" d="M177.697,45.04v-0.31l-0.012-0.009c-0.171,0.342-0.611,0.353-0.989,0.353c-0.673,0-1.141-0.124-1.141-0.906
	c0-0.829,0.43-0.944,1.172-0.944c0.296,0,0.878,0.029,0.941,0.304h0.029v-0.554c0-0.548-0.292-0.599-0.8-0.599
	c-0.355,0-0.788,0-0.782,0.412v0.101h-0.468v-0.063c0-0.771,0.531-0.822,1.198-0.815c0.756-0.006,1.308,0.072,1.304,0.987v2.044
	H177.697z M177.685,44.149c0-0.565-0.338-0.56-0.906-0.56c-0.539,0-0.756,0.035-0.756,0.521c0,0.57,0.233,0.599,0.756,0.599
	C177.229,44.708,177.685,44.697,177.685,44.149"/>
<path class="st1" d="M181.57,42.407h-1.159v1.901c0.006,0.326,0.092,0.401,0.424,0.401c0.422,0,0.422-0.223,0.422-0.51v-0.223h0.427
	v0.223c0,0.596-0.244,0.874-0.862,0.874c-0.702,0-0.863-0.2-0.863-0.901v-1.764h-0.399v-0.365h0.399v-0.725h0.451v0.725h1.159
	V42.407z"/>
<path class="st1" d="M185.171,45.04v-0.31l-0.012-0.009c-0.171,0.342-0.611,0.353-0.989,0.353c-0.673,0-1.141-0.124-1.141-0.906
	c0-0.829,0.428-0.944,1.17-0.944c0.298,0,0.88,0.029,0.941,0.304h0.031v-0.554c0-0.548-0.293-0.599-0.8-0.599
	c-0.355,0-0.788,0-0.783,0.412v0.101h-0.468v-0.063c0-0.771,0.533-0.822,1.199-0.815c0.754-0.006,1.308,0.072,1.302,0.987v2.044
	H185.171z M185.158,44.149c0-0.565-0.338-0.56-0.908-0.56c-0.537,0-0.754,0.035-0.754,0.521c0,0.57,0.233,0.599,0.754,0.599
	C184.702,44.708,185.158,44.697,185.158,44.149"/>
<path class="st1" d="M187.913,42.407h0.011c0.144-0.359,0.584-0.399,0.926-0.399c0.771,0,1.143,0.204,1.13,1.038v1.993h-0.451
	v-2.026c0-0.548-0.21-0.64-0.72-0.64c-0.736,0-0.895,0.227-0.895,0.918v1.748h-0.45v-2.998h0.45V42.407z"/>
<path class="st1" d="M193.072,42.009c1.113,0,1.33,0.267,1.33,1.534c0,1.262-0.217,1.531-1.33,1.531c-1.115,0-1.33-0.269-1.33-1.531
	C191.742,42.276,191.957,42.009,193.072,42.009 M193.072,44.708c0.803,0,0.861-0.126,0.861-1.166c0-1.044-0.058-1.17-0.861-1.17
	c-0.805,0-0.863,0.126-0.863,1.17C192.209,44.582,192.267,44.708,193.072,44.708"/>
<path class="st1" d="M196.591,42.407l0.012,0.011c0.183-0.342,0.588-0.41,0.964-0.41c1.09,0,1.17,0.639,1.17,1.536
	c0,1.187-0.292,1.53-1.17,1.53c-0.342,0-0.794-0.04-0.964-0.389h-0.012v1.651h-0.45V42.04h0.45V42.407z M196.591,43.544
	c0,0.708,0.046,1.164,0.851,1.164c0.697,0,0.828-0.194,0.828-1.164c0-0.897-0.061-1.172-0.828-1.172
	C196.591,42.372,196.591,42.75,196.591,43.544"/>
<path class="st1" d="M200.87,42.041l-0.023,0.372l0.012,0.011c0.154-0.33,0.514-0.415,0.851-0.415c0.576,0,0.834,0.286,0.834,0.843
	v0.218h-0.428v-0.2c0-0.373-0.126-0.498-0.504-0.498c-0.559,0-0.742,0.269-0.729,0.799v1.867h-0.451v-2.998H200.87z"/>
<path class="st1" d="M205.316,42.009c1.113,0,1.328,0.267,1.328,1.534c0,1.262-0.215,1.531-1.328,1.531
	c-1.115,0-1.331-0.269-1.331-1.531C203.985,42.276,204.201,42.009,205.316,42.009 M205.316,44.708c0.803,0,0.861-0.126,0.861-1.166
	c0-1.044-0.058-1.17-0.861-1.17c-0.805,0-0.863,0.126-0.863,1.17C204.453,44.582,204.511,44.708,205.316,44.708"/>
<path class="st1" d="M210.772,42.823h-0.47V42.71c0-0.303-0.227-0.303-0.702-0.303c-0.565,0-0.838-0.006-0.838,0.365
	c0,0.536,0.149,0.496,0.616,0.519c0.772,0.046,1.474-0.075,1.474,0.903c0,0.845-0.584,0.878-1.252,0.878
	c-0.65,0-1.331-0.034-1.331-0.702v-0.279h0.47v0.233c0,0.286,0.177,0.349,0.861,0.349c0.309,0,0.782,0.069,0.782-0.462
	c0-0.559-0.232-0.456-0.782-0.491c-0.65-0.046-1.307,0.023-1.307-0.829c0-0.868,0.496-0.883,1.307-0.883
	c0.525,0,1.172,0.021,1.172,0.702V42.823z"/>
<path class="st1" d="M214.114,42.407h-1.159v1.901c0.006,0.326,0.091,0.401,0.424,0.401c0.421,0,0.421-0.223,0.421-0.51v-0.223h0.43
	v0.223c0,0.596-0.246,0.874-0.863,0.874c-0.702,0-0.861-0.2-0.861-0.901v-1.764h-0.401v-0.365h0.401v-0.725h0.45v0.725h1.159V42.407
	z"/>
<path class="st1" d="M218.476,43.527v-1.258c0.028-1.37,0.49-1.546,1.815-1.546c1.335,0,1.798,0.177,1.826,1.546v1.258
	c-0.028,1.37-0.491,1.546-1.815,1.546C218.965,45.073,218.503,44.897,218.476,43.527 M218.959,42.269v1.258
	c0,1.112,0.279,1.118,1.331,1.118c1.063,0,1.342-0.006,1.342-1.118v-1.258c0-1.113-0.279-1.119-1.342-1.119
	C219.239,41.15,218.959,41.156,218.959,42.269"/>
<rect x="223.958" y="44.457" class="st1" width="0.51" height="0.582"/>
<path class="st1" d="M226.515,43.527v-1.258c0.028-1.37,0.49-1.546,1.814-1.546c1.336,0,1.8,0.177,1.827,1.546v1.258
	c-0.028,1.37-0.491,1.546-1.815,1.546C227.004,45.073,226.542,44.897,226.515,43.527 M226.998,42.269v1.258
	c0,1.112,0.279,1.118,1.33,1.118c1.063,0,1.342-0.006,1.342-1.118v-1.258c0-1.113-0.279-1.119-1.342-1.119
	C227.278,41.15,226.998,41.156,226.998,42.269"/>
<path class="st1" d="M231.518,43.527v-1.258c0.029-1.37,0.49-1.546,1.815-1.546c1.338,0,1.8,0.177,1.827,1.546v1.258
	c-0.028,1.37-0.49,1.546-1.815,1.546C232.008,45.073,231.547,44.897,231.518,43.527 M232.003,42.269v1.258
	c0,1.112,0.279,1.118,1.33,1.118c1.063,0,1.342-0.006,1.342-1.118v-1.258c0-1.113-0.279-1.119-1.342-1.119
	C232.283,41.15,232.003,41.156,232.003,42.269"/>
<path class="st1" d="M237.323,42.464h0.012c0.204-0.344,0.788-0.353,1.152-0.353c1.338,0,1.439,0.622,1.439,1.444
	c0,1.342-0.28,1.519-1.576,1.519c-1.153,0-1.523-0.118-1.582-1.159l-0.006-0.101h0.491v0.143c0,0.668,0.332,0.691,1.096,0.691
	c1.006,0,1.09-0.155,1.09-1.092c0-0.918-0.17-1.017-1.09-1.017c-0.349,0-0.949-0.068-1.027,0.389h-0.485v-2.17h2.912v0.428h-2.426
	V42.464z"/>
<path class="st1" d="M243.361,42.121c-0.012,0.685-0.279,0.777-0.943,0.777c-0.668,0-0.895-0.086-0.912-0.772V41.5
	c0.017-0.686,0.244-0.777,0.906-0.777c0.67,0,0.937,0.086,0.949,0.771V42.121z M243.018,41.481c0-0.439-0.103-0.445-0.607-0.445
	c-0.468,0-0.565,0.006-0.565,0.445v0.63c0,0.473,0.097,0.473,0.565,0.473c0.476,0,0.607,0,0.607-0.473V41.481z M242.647,45.073
	h-0.382l2.89-4.317h0.398L242.647,45.073z M246.302,44.298c-0.011,0.683-0.28,0.776-0.943,0.776c-0.666,0-0.895-0.084-0.912-0.769
	v-0.63c0.017-0.685,0.246-0.775,0.906-0.775c0.67,0,0.938,0.086,0.949,0.771V44.298z M245.959,43.657
	c0-0.439-0.104-0.445-0.607-0.445c-0.468,0-0.565,0.006-0.565,0.445v0.628c0,0.475,0.097,0.475,0.565,0.475
	c0.476,0,0.607,0,0.607-0.475V43.657z"/>
</svg>