<!-- Generator: Adobe Illustrator 24.0.1, SVG Export Plug-In  -->
<svg version="1.1" xmlns="http://www.w3.org/2000/svg" xmlns:xlink="http://www.w3.org/1999/xlink" x="0px" y="0px"
	 width="270.211px" height="37.513px" viewBox="0 0 270.211 37.513" style="enable-background:new 0 0 270.211 37.513;"
	 xml:space="preserve">
<style type="text/css">
	.st0{fill:#76B82A;}
</style>
<defs>
</defs>
<path d="M62.997,16.723c1.574,0,2.847-1.238,2.847-2.766c0-1.53-1.273-2.767-2.847-2.767H51.606V8.426
	c0-1.526,1.276-2.769,2.847-2.769h8.544c1.574,0,2.847-1.236,2.847-2.766c0-1.526-1.273-2.766-2.847-2.766h-8.544
	c-4.711,0-8.544,3.724-8.544,8.3V19.49c0,4.575,3.833,8.299,8.544,8.299h8.544c1.574,0,2.847-1.241,2.847-2.767
	c0-1.526-1.273-2.764-2.847-2.764h-8.544c-1.571,0-2.847-1.242-2.847-2.767v-2.767H62.997z"/>
<path d="M2.767,13.963v2.767h10.364c0.435,0.002,0.834,0.081,1.196,0.232c0.545,0.22,1.001,0.59,1.313,1.032
	c0.155,0.223,0.273,0.461,0.353,0.709c0.083,0.25,0.126,0.513,0.126,0.795c0,0.186-0.02,0.364-0.055,0.537
	c-0.066,0.301-0.181,0.588-0.35,0.852c-0.247,0.396-0.614,0.743-1.057,0.987c-0.221,0.123-0.462,0.22-0.716,0.287
	c-0.258,0.065-0.527,0.101-0.812,0.101H5.534v-8.302H2.767v2.767V13.963H0v11.069c0,0.729,0.295,1.442,0.811,1.958
	c0.514,0.514,1.227,0.809,1.956,0.809H13.13c1.155,0,2.268-0.224,3.283-0.639c1.522-0.619,2.824-1.652,3.755-2.978
	c0.465-0.662,0.838-1.396,1.093-2.188c0.256-0.789,0.393-1.631,0.393-2.495c0.002-1.155-0.244-2.268-0.686-3.269
	c-0.33-0.752-0.768-1.442-1.295-2.055c-0.788-0.917-1.769-1.66-2.884-2.176c-1.112-0.518-2.359-0.803-3.658-0.803H2.767
	c-0.729,0-1.442,0.296-1.956,0.811C0.295,12.522,0,13.233,0,13.963H2.767z M2.767,2.894V5.66h10.364
	c0.435,0,0.834,0.084,1.196,0.235c0.545,0.22,1.001,0.587,1.313,1.03c0.155,0.221,0.273,0.458,0.353,0.711
	c0.083,0.249,0.126,0.511,0.126,0.792c0,0.187-0.02,0.367-0.055,0.541c-0.066,0.301-0.183,0.585-0.35,0.849
	c-0.247,0.399-0.614,0.746-1.057,0.989c-0.221,0.121-0.462,0.22-0.716,0.287c-0.258,0.064-0.527,0.101-0.812,0.101H5.534V2.894
	H2.767V5.66V2.894H0v11.069c0,0.729,0.295,1.442,0.811,1.956c0.514,0.516,1.227,0.811,1.956,0.811H13.13
	c1.155,0.002,2.27-0.226,3.283-0.637c1.522-0.622,2.824-1.654,3.755-2.978c0.465-0.663,0.838-1.401,1.093-2.191
	c0.256-0.786,0.393-1.631,0.393-2.495c0.002-1.152-0.244-2.267-0.686-3.266c-0.33-0.756-0.768-1.444-1.295-2.058
	c-0.788-0.917-1.769-1.659-2.884-2.174c-1.112-0.518-2.359-0.805-3.658-0.802H2.767c-0.729,0-1.442,0.293-1.956,0.811
	C0.295,1.452,0,2.166,0,2.894H2.767z"/>
<path d="M24.868,2.887v16.604c0,4.575,3.834,8.299,8.546,8.299h8.543c1.574,0,2.849-1.241,2.849-2.767
	c0-1.528-1.275-2.766-2.849-2.766h-8.543c-1.569,0-2.85-1.239-2.85-2.766V2.709"/>
<path d="M30.572,2.891c0-1.526-1.276-2.766-2.847-2.766c-1.576,0-2.85,1.239-2.85,2.766"/>
<rect x="121.508" y="11.239" width="15.957" height="5.536"/>
<path d="M123.788,25.075V8.47c0-0.189,0.02-0.367,0.057-0.539c0.063-0.303,0.181-0.587,0.349-0.851
	c0.25-0.398,0.614-0.745,1.057-0.987c0.223-0.121,0.461-0.22,0.717-0.287c0.253-0.065,0.524-0.101,0.811-0.101h4.607
	c0.433,0,0.834,0.083,1.199,0.229c0.542,0.223,1,0.594,1.308,1.037c0.158,0.218,0.275,0.458,0.356,0.708
	c0.083,0.249,0.124,0.51,0.124,0.792v16.605c0,1.53,1.239,2.766,2.767,2.766s2.767-1.236,2.767-2.766V8.47
	c0-1.153-0.244-2.267-0.686-3.269c-0.332-0.751-0.771-1.439-1.295-2.052c-0.788-0.918-1.769-1.663-2.884-2.178
	c-1.113-0.516-2.36-0.802-3.658-0.802h-4.607c-1.156,0-2.271,0.226-3.283,0.637c-1.522,0.62-2.824,1.654-3.755,2.976
	c-0.467,0.665-0.838,1.401-1.095,2.19c-0.255,0.788-0.392,1.632-0.392,2.497v16.605c0,1.53,1.238,2.766,2.767,2.766
	C122.551,27.841,123.788,26.605,123.788,25.075"/>
<rect x="217.995" y="11.239" class="st0" width="15.957" height="5.536"/>
<path class="st0" d="M220.273,25.075V8.47c0-0.189,0.021-0.367,0.057-0.539c0.064-0.303,0.181-0.587,0.349-0.851
	c0.25-0.398,0.616-0.745,1.058-0.987c0.223-0.121,0.459-0.22,0.716-0.287c0.253-0.065,0.524-0.101,0.812-0.101h4.605
	c0.433,0,0.835,0.083,1.199,0.229c0.544,0.223,1,0.594,1.308,1.037c0.157,0.218,0.276,0.458,0.356,0.708
	c0.083,0.249,0.126,0.51,0.126,0.792v16.605c0,1.53,1.238,2.766,2.764,2.766c1.531,0,2.77-1.236,2.77-2.766V8.47
	c0-1.153-0.246-2.267-0.688-3.269c-0.332-0.751-0.769-1.439-1.295-2.052c-0.788-0.918-1.769-1.663-2.882-2.178
	c-1.115-0.516-2.362-0.802-3.659-0.802h-4.605c-1.158,0-2.271,0.226-3.285,0.637c-1.522,0.62-2.826,1.654-3.755,2.976
	c-0.465,0.665-0.838,1.401-1.093,2.19c-0.256,0.788-0.395,1.632-0.395,2.497v16.605c0,1.53,1.241,2.766,2.769,2.766
	C219.034,27.841,220.273,26.605,220.273,25.075"/>
<path d="M74.375,25.085V2.887c0-1.526-1.236-2.76-2.76-2.76c-1.526,0-2.76,1.233-2.76,2.76v22.198c0,1.523,1.233,2.756,2.76,2.756
	C73.139,27.841,74.375,26.608,74.375,25.085 M71.622,2.891v2.761h10.333c0.435,0,0.834,0.083,1.196,0.232
	c0.544,0.218,1,0.588,1.308,1.029c0.154,0.221,0.272,0.458,0.353,0.706c0.081,0.25,0.124,0.51,0.124,0.789
	c0,0.189-0.018,0.369-0.057,0.539c-0.063,0.301-0.18,0.585-0.347,0.851c-0.25,0.396-0.613,0.74-1.055,0.986
	c-0.22,0.123-0.461,0.218-0.714,0.284c-0.255,0.066-0.524,0.101-0.809,0.101H74.38V2.891H71.622v2.761V2.891h-2.761v11.04
	c0,0.726,0.298,1.437,0.809,1.952c0.513,0.513,1.226,0.808,1.952,0.808h10.333c1.152,0,2.264-0.227,3.274-0.636
	c1.519-0.62,2.816-1.651,3.744-2.973c0.465-0.659,0.837-1.393,1.092-2.179c0.255-0.788,0.393-1.628,0.393-2.494
	c0.001-1.147-0.247-2.257-0.686-3.259c-0.33-0.749-0.768-1.437-1.29-2.049c-0.788-0.915-1.766-1.655-2.876-2.17
	c-1.11-0.514-2.354-0.8-3.65-0.797H71.622c-0.726,0-1.439,0.293-1.952,0.805c-0.511,0.514-0.809,1.225-0.809,1.952H71.622z"/>
<rect x="96.671" y="11.187" width="15.957" height="5.535"/>
<path d="M109.369,2.764v22.261c0,1.528,1.241,2.769,2.769,2.769s2.767-1.241,2.767-2.769V2.764c0-1.526-1.239-2.764-2.767-2.764
	S109.369,1.238,109.369,2.764 M98.948,25.025V2.764C98.948,1.238,97.709,0,96.181,0c-1.53,0-2.769,1.238-2.769,2.764v22.261
	c0,1.528,1.239,2.769,2.769,2.769C97.709,27.794,98.948,26.553,98.948,25.025"/>
<path class="st0" d="M255.739,2.764v22.261c0,1.528,1.239,2.769,2.769,2.769c1.526,0,2.766-1.241,2.766-2.769V2.764
	c0-1.526-1.239-2.764-2.766-2.764C256.978,0,255.739,1.238,255.739,2.764 M245.317,25.025V2.764c0-1.526-1.239-2.764-2.767-2.764
	c-1.528,0-2.769,1.238-2.769,2.764v22.261c0,1.528,1.241,2.769,2.769,2.769C244.077,27.794,245.317,26.553,245.317,25.025"/>
<path class="st0" d="M208.456,16.739c1.572,0,2.852-1.241,2.852-2.769s-1.279-2.769-2.852-2.769h-11.401V8.433
	c0-1.526,1.276-2.769,2.847-2.769h8.554c1.572,0,2.852-1.241,2.852-2.772c0-1.526-1.279-2.766-2.852-2.766h-8.554
	c-4.714,0-8.552,3.724-8.552,8.306V19.51c0,4.579,3.838,8.306,8.552,8.306h8.554c1.572,0,2.852-1.241,2.852-2.77
	c0-1.528-1.279-2.767-2.852-2.767h-8.554c-1.571,0-2.847-1.244-2.847-2.769v-2.77H208.456z"/>
<path class="st0" d="M168.375,2.891v16.617c0,4.578,3.838,8.306,8.554,8.306h8.554c1.574,0,2.85-1.239,2.85-2.767
	c0-1.531-1.276-2.769-2.85-2.769h-8.554c-1.574,0-2.85-1.244-2.85-2.77V2.713"/>
<path class="st0" d="M174.083,2.896c0-1.531-1.278-2.77-2.853-2.77c-1.574,0-2.849,1.239-2.849,2.77"/>
<path class="st0" d="M159.804,27.816h2.606c1.574,0,2.85-1.241,2.85-2.769c0-1.53-1.276-2.769-2.85-2.769h-3.145h-2.632h-4.785
	c-1.572,0-2.852-1.244-2.852-2.769V8.433c0-1.526,1.279-2.769,2.852-2.769h10.513c1.574,0,2.85-1.239,2.85-2.77
	c0-1.528-1.276-2.767-2.85-2.767h-10.513c-4.716,0-8.552,3.724-8.552,8.306V19.51c0,4.579,3.836,8.306,8.552,8.306h4.785H159.804z"
	/>
<path class="st0" d="M270.211,2.811c0-1.453-1.17-2.635-2.635-2.635c-1.447,0-2.624,1.182-2.624,2.635
	c0,1.448,1.178,2.621,2.624,2.621C269.041,5.432,270.211,4.259,270.211,2.811 M269.717,2.811c0,1.173-0.955,2.131-2.141,2.131
	c-1.17,0-2.128-0.958-2.128-2.131c0-1.176,0.958-2.138,2.128-2.138C268.762,0.673,269.717,1.634,269.717,2.811 M268.671,2.17V2.129
	c0-0.508-0.412-0.915-0.929-0.915h-0.76l-0.235,0.241v2.733c0,0.164,0.12,0.244,0.243,0.244c0.134,0,0.247-0.08,0.247-0.244V3.075
	h0.318l0.613,1.215l0.206,0.143c0.161,0,0.255-0.101,0.255-0.235L268.6,4.082l-0.533-1.066C268.436,2.852,268.671,2.55,268.671,2.17
	 M268.183,2.166c0,0.247-0.2,0.425-0.448,0.425h-0.498V1.688h0.498c0.227,0,0.448,0.129,0.448,0.435V2.166z"/>
<polygon class="st0" points="241.262,5.922 256.45,26.873 259.851,21.994 244.787,1.156 "/>
<polygon class="st0" points="144.62,32.256 143.289,32.256 143.289,31.775 146.529,31.775 146.529,32.256 145.193,32.256 
	145.193,36.155 144.62,36.155 "/>
<path class="st0" d="M149.385,34.557c0,1.161-0.806,1.668-1.566,1.668c-0.852,0-1.507-0.622-1.507-1.616
	c0-1.053,0.688-1.671,1.559-1.671C148.774,32.938,149.385,33.596,149.385,34.557 M146.89,34.589c0,0.688,0.396,1.209,0.955,1.209
	c0.545,0,0.954-0.514,0.954-1.222c0-0.533-0.266-1.207-0.941-1.207S146.89,33.99,146.89,34.589"/>
<path class="st0" d="M152.317,35.401c0,0.273,0.014,0.541,0.054,0.754h-0.521l-0.046-0.396h-0.018
	c-0.177,0.246-0.514,0.468-0.963,0.468c-0.637,0-0.963-0.45-0.963-0.905c0-0.759,0.677-1.175,1.892-1.169v-0.066
	c0-0.26-0.072-0.726-0.714-0.726c-0.293,0-0.597,0.091-0.818,0.233l-0.131-0.378c0.261-0.169,0.637-0.278,1.034-0.278
	c0.961,0,1.195,0.656,1.195,1.285V35.401z M151.765,34.55c-0.625-0.014-1.333,0.097-1.333,0.708c0,0.372,0.249,0.545,0.539,0.545
	c0.41,0,0.67-0.261,0.762-0.527l0.032-0.181V34.55z"/>
<rect x="153.241" y="31.542" class="st0" width="0.573" height="4.613"/>
<rect x="154.775" y="31.542" class="st0" width="0.573" height="4.613"/>
<path class="st0" d="M156.946,32.127c0.006,0.195-0.137,0.35-0.364,0.35c-0.201,0-0.345-0.155-0.345-0.35
	c0-0.201,0.151-0.358,0.359-0.358C156.81,31.769,156.946,31.926,156.946,32.127 M156.311,33.01h0.573v3.145h-0.573V33.01z"/>
<path class="st0" d="M158.519,32.256v0.754h0.818v0.435h-0.818v1.697c0,0.39,0.111,0.611,0.43,0.611c0.154,0,0.246-0.014,0.33-0.04
	l0.026,0.428c-0.111,0.046-0.286,0.086-0.507,0.086c-0.267,0-0.482-0.092-0.617-0.247c-0.163-0.169-0.221-0.448-0.221-0.818v-1.717
	h-0.487V33.01h0.487v-0.579L158.519,32.256z"/>
<path class="st0" d="M162.19,35.401c0,0.273,0.014,0.541,0.054,0.754h-0.521l-0.046-0.396h-0.018
	c-0.177,0.246-0.514,0.468-0.961,0.468c-0.637,0-0.963-0.45-0.963-0.905c0-0.759,0.676-1.175,1.892-1.169v-0.066
	c0-0.26-0.072-0.726-0.716-0.726c-0.292,0-0.597,0.091-0.818,0.233l-0.131-0.378c0.261-0.169,0.637-0.278,1.034-0.278
	c0.961,0,1.195,0.656,1.195,1.285V35.401z M161.639,34.55c-0.623-0.014-1.333,0.097-1.333,0.708c0,0.372,0.247,0.545,0.541,0.545
	c0.409,0,0.668-0.261,0.76-0.527l0.032-0.181V34.55z"/>
<path class="st0" d="M163.038,35.57c0.169,0.111,0.468,0.227,0.754,0.227c0.416,0,0.611-0.207,0.611-0.468
	c0-0.272-0.163-0.422-0.585-0.577c-0.567-0.201-0.832-0.514-0.832-0.891c0-0.507,0.409-0.923,1.086-0.923
	c0.318,0,0.597,0.091,0.772,0.197l-0.143,0.415c-0.124-0.078-0.352-0.181-0.642-0.181c-0.339,0-0.528,0.195-0.528,0.428
	c0,0.26,0.189,0.376,0.597,0.533c0.547,0.207,0.826,0.481,0.826,0.948c0,0.553-0.428,0.951-1.176,0.951
	c-0.344,0-0.663-0.092-0.883-0.221L163.038,35.57z"/>
<path class="st0" d="M167.385,34.686c0.015,0.772,0.508,1.092,1.081,1.092c0.408,0,0.656-0.072,0.869-0.163l0.098,0.408
	c-0.203,0.091-0.545,0.203-1.046,0.203c-0.967,0-1.546-0.643-1.546-1.592c0-0.949,0.559-1.695,1.474-1.695
	c1.027,0,1.301,0.901,1.301,1.48l-0.02,0.267H167.385z M169.063,34.276c0.006-0.362-0.151-0.929-0.794-0.929
	c-0.577,0-0.831,0.533-0.877,0.929H169.063z"/>
<path class="st0" d="M170.247,35.57c0.169,0.111,0.468,0.227,0.754,0.227c0.416,0,0.61-0.207,0.61-0.468
	c0-0.272-0.161-0.422-0.585-0.577c-0.565-0.201-0.831-0.514-0.831-0.891c0-0.507,0.409-0.923,1.086-0.923
	c0.318,0,0.597,0.091,0.772,0.197l-0.143,0.415c-0.124-0.078-0.352-0.181-0.643-0.181c-0.338,0-0.527,0.195-0.527,0.428
	c0,0.26,0.189,0.376,0.597,0.533c0.545,0.207,0.826,0.481,0.826,0.948c0,0.553-0.428,0.951-1.176,0.951
	c-0.344,0-0.663-0.092-0.885-0.221L170.247,35.57z"/>
<path class="st0" d="M173.589,32.256v0.754h0.818v0.435h-0.818v1.697c0,0.39,0.111,0.611,0.428,0.611c0.155,0,0.246-0.014,0.33-0.04
	l0.028,0.428c-0.112,0.046-0.287,0.086-0.507,0.086c-0.267,0-0.482-0.092-0.619-0.247c-0.161-0.169-0.22-0.448-0.22-0.818v-1.717
	h-0.487V33.01h0.487v-0.579L173.589,32.256z"/>
<path class="st0" d="M175.329,34.686c0.015,0.772,0.507,1.092,1.08,1.092c0.41,0,0.657-0.071,0.871-0.161l0.098,0.408
	c-0.203,0.091-0.547,0.201-1.047,0.201c-0.967,0-1.546-0.643-1.546-1.592c0-0.947,0.561-1.695,1.476-1.695
	c1.026,0,1.301,0.903,1.301,1.482l-0.02,0.266H175.329z M177.007,34.276c0.006-0.362-0.15-0.928-0.794-0.928
	c-0.577,0-0.831,0.533-0.877,0.928H177.007z M177.144,31.651l-0.794,0.929h-0.408l0.571-0.929H177.144z"/>
<path class="st0" d="M178.268,33.991c0-0.37-0.006-0.689-0.025-0.981h0.501l0.018,0.617h0.026c0.144-0.422,0.487-0.688,0.871-0.688
	l0.163,0.018v0.541l-0.197-0.02c-0.402,0-0.688,0.306-0.766,0.734l-0.025,0.266v1.677h-0.567V33.991z"/>
<path class="st0" d="M181.058,32.127c0.006,0.195-0.137,0.35-0.364,0.35c-0.201,0-0.344-0.155-0.344-0.35
	c0-0.201,0.15-0.358,0.358-0.358C180.921,31.769,181.058,31.926,181.058,32.127 M180.421,33.01h0.573v3.145h-0.573V33.01z"/>
<rect x="181.942" y="31.542" class="st0" width="0.573" height="4.613"/>
<path class="st0" d="M183.794,34.686c0.014,0.772,0.507,1.092,1.08,1.092c0.407,0,0.656-0.072,0.871-0.163l0.097,0.408
	c-0.203,0.091-0.545,0.203-1.046,0.203c-0.969,0-1.548-0.643-1.548-1.592c0-0.949,0.561-1.695,1.476-1.695
	c1.027,0,1.299,0.901,1.299,1.48l-0.02,0.267H183.794z M185.471,34.276c0.006-0.362-0.151-0.929-0.794-0.929
	c-0.579,0-0.832,0.533-0.877,0.929H185.471z"/>
<path class="st0" d="M186.655,35.57c0.169,0.111,0.468,0.227,0.754,0.227c0.415,0,0.611-0.207,0.611-0.468
	c0-0.272-0.163-0.422-0.585-0.577c-0.567-0.201-0.832-0.514-0.832-0.891c0-0.507,0.41-0.923,1.086-0.923
	c0.318,0,0.597,0.091,0.774,0.197l-0.144,0.415c-0.123-0.078-0.352-0.181-0.642-0.181c-0.339,0-0.528,0.195-0.528,0.428
	c0,0.26,0.189,0.376,0.597,0.533c0.547,0.207,0.826,0.481,0.826,0.948c0,0.553-0.428,0.951-1.176,0.951
	c-0.344,0-0.663-0.092-0.883-0.221L186.655,35.57z"/>
<path class="st0" d="M190.685,34.036c0-0.402-0.011-0.728-0.025-1.026h0.513l0.025,0.541h0.014c0.235-0.384,0.605-0.611,1.118-0.611
	c0.759,0,1.331,0.642,1.331,1.597c0,1.132-0.688,1.691-1.43,1.691c-0.415,0-0.779-0.183-0.967-0.494h-0.014v1.708h-0.565V34.036z
	 M191.25,34.874l0.028,0.233c0.103,0.396,0.448,0.67,0.857,0.67c0.605,0,0.954-0.493,0.954-1.215c0-0.63-0.33-1.169-0.935-1.169
	c-0.389,0-0.752,0.278-0.863,0.708l-0.04,0.233V34.874z"/>
<path class="st0" d="M196.594,35.401c0,0.273,0.014,0.541,0.052,0.754h-0.521l-0.046-0.396h-0.018
	c-0.177,0.246-0.513,0.468-0.961,0.468c-0.639,0-0.964-0.45-0.964-0.905c0-0.759,0.679-1.175,1.892-1.169v-0.066
	c0-0.26-0.071-0.726-0.714-0.726c-0.293,0-0.597,0.091-0.818,0.233l-0.131-0.378c0.261-0.169,0.637-0.278,1.034-0.278
	c0.961,0,1.196,0.656,1.196,1.285V35.401z M196.042,34.55c-0.623-0.014-1.333,0.097-1.333,0.708c0,0.372,0.249,0.545,0.539,0.545
	c0.41,0,0.669-0.261,0.762-0.527l0.032-0.181V34.55z"/>
<path class="st0" d="M197.518,33.991c0-0.37-0.006-0.689-0.025-0.981h0.499l0.018,0.617h0.026c0.144-0.422,0.488-0.688,0.871-0.688
	l0.163,0.018v0.541l-0.195-0.02c-0.402,0-0.688,0.306-0.766,0.734l-0.026,0.266v1.677h-0.565V33.991z"/>
<path class="st0" d="M201.821,35.401c0,0.273,0.014,0.541,0.052,0.754h-0.521l-0.046-0.396h-0.018
	c-0.177,0.246-0.513,0.468-0.961,0.468c-0.639,0-0.963-0.45-0.963-0.905c0-0.759,0.677-1.175,1.89-1.169v-0.066
	c0-0.26-0.071-0.726-0.713-0.726c-0.295,0-0.599,0.091-0.82,0.233l-0.131-0.378c0.261-0.169,0.637-0.278,1.034-0.278
	c0.961,0,1.196,0.656,1.196,1.285V35.401z M201.268,34.55c-0.623-0.014-1.333,0.097-1.333,0.708c0,0.372,0.249,0.545,0.539,0.545
	c0.41,0,0.67-0.261,0.762-0.527l0.032-0.181V34.55z"/>
<rect x="204.123" y="31.542" class="st0" width="0.573" height="4.613"/>
<path class="st0" d="M207.865,35.401c0,0.273,0.014,0.541,0.054,0.754h-0.521l-0.046-0.396h-0.018
	c-0.177,0.246-0.514,0.468-0.961,0.468c-0.637,0-0.963-0.45-0.963-0.905c0-0.759,0.677-1.175,1.892-1.169v-0.066
	c0-0.26-0.072-0.726-0.716-0.726c-0.292,0-0.597,0.091-0.818,0.233l-0.131-0.378c0.261-0.169,0.637-0.278,1.034-0.278
	c0.961,0,1.195,0.656,1.195,1.285V35.401z M207.314,34.55c-0.623-0.014-1.333,0.097-1.333,0.708c0,0.372,0.247,0.545,0.541,0.545
	c0.409,0,0.668-0.261,0.76-0.527l0.032-0.181V34.55z"/>
<path class="st0" d="M210.168,31.542h0.573v1.963h0.012c0.089-0.163,0.233-0.306,0.408-0.404c0.17-0.097,0.372-0.161,0.585-0.161
	c0.422,0,1.098,0.26,1.098,1.344v1.872h-0.571v-1.806c0-0.507-0.189-0.937-0.728-0.937c-0.37,0-0.663,0.261-0.766,0.573
	l-0.038,0.272v1.898h-0.573V31.542z"/>
<path class="st0" d="M214.414,32.127c0.005,0.195-0.137,0.35-0.364,0.35c-0.203,0-0.344-0.155-0.344-0.35
	c0-0.201,0.149-0.358,0.356-0.358C214.277,31.769,214.414,31.926,214.414,32.127 M213.776,33.01h0.573v3.145h-0.573V33.01z"/>
<path class="st0" d="M217.981,35.699c0,0.722-0.143,1.164-0.448,1.436c-0.307,0.287-0.748,0.378-1.144,0.378
	c-0.376,0-0.792-0.091-1.046-0.26l0.143-0.436c0.207,0.131,0.531,0.247,0.923,0.247c0.585,0,1.013-0.306,1.013-1.098v-0.352h-0.012
	c-0.175,0.293-0.514,0.527-1.001,0.527c-0.78,0-1.339-0.663-1.339-1.534c0-1.064,0.696-1.668,1.417-1.668
	c0.545,0,0.845,0.284,0.981,0.544h0.012l0.026-0.473h0.501c-0.014,0.227-0.026,0.481-0.026,0.863V35.699z M217.416,34.251
	l-0.032-0.26c-0.104-0.332-0.384-0.604-0.8-0.604c-0.545,0-0.935,0.461-0.935,1.187c0,0.617,0.312,1.13,0.929,1.13
	c0.352,0,0.669-0.22,0.792-0.585l0.046-0.304V34.251z"/>
<path class="st0" d="M219.529,32.127c0.006,0.195-0.137,0.35-0.364,0.35c-0.201,0-0.344-0.155-0.344-0.35
	c0-0.201,0.149-0.358,0.358-0.358C219.392,31.769,219.529,31.926,219.529,32.127 M218.892,33.01h0.573v3.145h-0.573V33.01z"/>
<path class="st0" d="M220.731,34.686c0.014,0.772,0.508,1.092,1.08,1.092c0.408,0,0.657-0.072,0.871-0.163l0.097,0.408
	c-0.201,0.091-0.544,0.203-1.044,0.203c-0.969,0-1.548-0.643-1.548-1.592c0-0.949,0.559-1.695,1.476-1.695
	c1.027,0,1.299,0.901,1.299,1.48l-0.02,0.267H220.731z M222.409,34.276c0.006-0.362-0.151-0.929-0.794-0.929
	c-0.579,0-0.832,0.533-0.877,0.929H222.409z"/>
<path class="st0" d="M223.671,33.861c0-0.324-0.006-0.591-0.026-0.851h0.507l0.032,0.519h0.014c0.155-0.298,0.519-0.591,1.04-0.591
	c0.435,0,1.11,0.26,1.11,1.339v1.878h-0.571v-1.814c0-0.507-0.189-0.929-0.728-0.929c-0.378,0-0.668,0.266-0.766,0.585l-0.038,0.266
	v1.892h-0.573V33.861z"/>
<path class="st0" d="M227.595,34.686c0.015,0.772,0.508,1.092,1.08,1.092c0.41,0,0.657-0.072,0.871-0.163l0.098,0.408
	c-0.203,0.091-0.545,0.203-1.046,0.203c-0.967,0-1.548-0.643-1.548-1.592c0-0.949,0.561-1.695,1.476-1.695
	c1.027,0,1.299,0.901,1.299,1.48l-0.018,0.267H227.595z M229.274,34.276c0.006-0.362-0.151-0.929-0.794-0.929
	c-0.577,0-0.831,0.533-0.877,0.929H229.274z"/>
<path class="st0" d="M234.631,31.542v3.801c0,0.279,0.005,0.597,0.023,0.812h-0.513l-0.025-0.547h-0.014
	c-0.175,0.352-0.559,0.617-1.072,0.617c-0.76,0-1.344-0.642-1.344-1.597c-0.008-1.047,0.643-1.691,1.41-1.691
	c0.479,0,0.805,0.227,0.948,0.482h0.014v-1.878H234.631z M234.059,34.289l-0.026-0.24c-0.086-0.365-0.398-0.662-0.826-0.662
	c-0.591,0-0.941,0.518-0.941,1.215c0,0.636,0.312,1.162,0.929,1.162c0.382,0,0.734-0.255,0.839-0.682l0.026-0.249V34.289z"/>
<path class="st0" d="M235.898,34.686c0.014,0.772,0.507,1.092,1.08,1.092c0.408,0,0.656-0.072,0.869-0.163l0.098,0.408
	c-0.201,0.091-0.545,0.203-1.046,0.203c-0.967,0-1.546-0.643-1.546-1.592c0-0.949,0.559-1.695,1.474-1.695
	c1.027,0,1.301,0.901,1.301,1.48l-0.02,0.267H235.898z M237.575,34.276c0.006-0.362-0.151-0.929-0.794-0.929
	c-0.577,0-0.831,0.533-0.877,0.929H237.575z"/>
<path class="st0" d="M240.214,34.036c0-0.402-0.011-0.728-0.025-1.026h0.513l0.026,0.541h0.014c0.233-0.384,0.605-0.611,1.118-0.611
	c0.759,0,1.331,0.642,1.331,1.597c0,1.132-0.689,1.691-1.43,1.691c-0.415,0-0.78-0.183-0.967-0.494h-0.014v1.708h-0.567V34.036z
	 M240.781,34.874l0.026,0.233c0.104,0.396,0.448,0.67,0.857,0.67c0.607,0,0.955-0.493,0.955-1.215c0-0.63-0.332-1.169-0.935-1.169
	c-0.39,0-0.752,0.278-0.865,0.708l-0.038,0.233V34.874z"/>
<path class="st0" d="M246.124,35.401c0,0.273,0.014,0.541,0.052,0.754h-0.521l-0.045-0.396h-0.02
	c-0.177,0.246-0.513,0.468-0.961,0.468c-0.637,0-0.963-0.45-0.963-0.905c0-0.759,0.677-1.175,1.892-1.169v-0.066
	c0-0.26-0.072-0.726-0.714-0.726c-0.293,0-0.597,0.091-0.819,0.233l-0.132-0.378c0.261-0.169,0.639-0.278,1.035-0.278
	c0.961,0,1.195,0.656,1.195,1.285V35.401z M245.571,34.55c-0.623-0.014-1.331,0.097-1.331,0.708c0,0.372,0.247,0.545,0.539,0.545
	c0.409,0,0.67-0.261,0.76-0.527l0.032-0.181V34.55z"/>
<path class="st0" d="M247.048,33.991c0-0.37-0.006-0.689-0.026-0.981h0.501l0.018,0.617h0.028c0.143-0.422,0.487-0.688,0.871-0.688
	l0.161,0.018v0.541l-0.195-0.02c-0.402,0-0.689,0.306-0.766,0.734l-0.026,0.266v1.677h-0.565V33.991z"/>
<path class="st0" d="M249.2,34.036c0-0.402-0.012-0.728-0.026-1.026h0.513l0.026,0.541h0.014c0.233-0.384,0.605-0.611,1.118-0.611
	c0.759,0,1.331,0.642,1.331,1.597c0,1.132-0.689,1.691-1.43,1.691c-0.415,0-0.78-0.183-0.967-0.494h-0.014v1.708H249.2V34.036z
	 M249.765,34.874l0.026,0.233c0.104,0.396,0.448,0.67,0.857,0.67c0.605,0,0.955-0.493,0.955-1.215c0-0.63-0.332-1.169-0.937-1.169
	c-0.389,0-0.752,0.278-0.863,0.708l-0.038,0.233V34.874z"/>
<path class="st0" d="M255.108,35.401c0,0.273,0.014,0.541,0.052,0.754h-0.521l-0.045-0.396h-0.02
	c-0.177,0.246-0.513,0.468-0.961,0.468c-0.637,0-0.963-0.45-0.963-0.905c0-0.759,0.677-1.175,1.892-1.169v-0.066
	c0-0.26-0.072-0.726-0.714-0.726c-0.293,0-0.597,0.091-0.819,0.233l-0.132-0.378c0.261-0.169,0.639-0.278,1.035-0.278
	c0.961,0,1.195,0.656,1.195,1.285V35.401z M254.555,34.55c-0.623-0.014-1.333,0.097-1.333,0.708c0,0.372,0.249,0.545,0.541,0.545
	c0.409,0,0.67-0.261,0.76-0.527l0.032-0.181V34.55z"/>
<path class="st0" d="M258.75,31.542v3.801c0,0.279,0.003,0.597,0.025,0.812h-0.513l-0.026-0.547h-0.014
	c-0.175,0.352-0.559,0.617-1.072,0.617c-0.76,0-1.344-0.642-1.344-1.597c-0.008-1.047,0.643-1.691,1.41-1.691
	c0.479,0,0.805,0.227,0.948,0.482h0.014v-1.878H258.75z M258.177,34.289l-0.026-0.24c-0.086-0.365-0.398-0.662-0.826-0.662
	c-0.591,0-0.941,0.518-0.941,1.215c0,0.636,0.312,1.162,0.929,1.162c0.382,0,0.734-0.255,0.839-0.682l0.026-0.249V34.289z"/>
<path class="st0" d="M262.546,34.557c0,1.161-0.806,1.668-1.566,1.668c-0.852,0-1.507-0.622-1.507-1.616
	c0-1.053,0.688-1.671,1.559-1.671C261.934,32.938,262.546,33.596,262.546,34.557 M260.05,34.589c0,0.688,0.396,1.209,0.954,1.209
	c0.547,0,0.955-0.514,0.955-1.222c0-0.533-0.266-1.207-0.941-1.207S260.05,33.99,260.05,34.589"/>
<path class="st0" d="M263.19,35.57c0.169,0.111,0.467,0.227,0.754,0.227c0.416,0,0.61-0.207,0.61-0.468
	c0-0.272-0.161-0.422-0.583-0.577c-0.567-0.201-0.832-0.514-0.832-0.891c0-0.507,0.409-0.923,1.086-0.923
	c0.316,0,0.597,0.091,0.772,0.197l-0.143,0.415c-0.124-0.078-0.352-0.181-0.643-0.181c-0.338,0-0.527,0.195-0.527,0.428
	c0,0.26,0.189,0.376,0.597,0.533c0.545,0.207,0.826,0.481,0.826,0.948c0,0.553-0.428,0.951-1.176,0.951
	c-0.344,0-0.663-0.092-0.885-0.221L263.19,35.57z"/>
</svg>