<!-- Generator: Adobe Illustrator 24.0.1, SVG Export Plug-In  -->
<svg version="1.1" xmlns="http://www.w3.org/2000/svg" xmlns:xlink="http://www.w3.org/1999/xlink" x="0px" y="0px"
	 width="271.935px" height="81.14px" viewBox="0 0 271.935 81.14" style="enable-background:new 0 0 271.935 81.14;"
	 xml:space="preserve">
<style type="text/css">
	.st0{fill:#29235C;}
	.st1{fill:#EF7900;}
	.st2{clip-path:url(#SVGID_5_);fill:#FFFFFF;}
	.st3{clip-path:url(#SVGID_6_);fill:url(#SVGID_7_);}
	.st4{clip-path:url(#SVGID_8_);fill:url(#SVGID_9_);}
	.st5{clip-path:url(#SVGID_10_);fill:url(#SVGID_11_);}
	.st6{clip-path:url(#SVGID_13_);fill:#FFFFFF;}
	.st7{clip-path:url(#SVGID_15_);fill:url(#SVGID_16_);}
	.st8{clip-path:url(#SVGID_18_);fill:url(#SVGID_19_);}
	.st9{clip-path:url(#SVGID_21_);fill:url(#SVGID_22_);}
</style>
<defs>
</defs>
<path class="st0" d="M203.795,26.08c0,0.382-0.072,0.739-0.215,1.069c-0.143,0.33-0.339,0.619-0.588,0.866
	c-0.249,0.25-0.542,0.445-0.875,0.59c-0.336,0.143-0.694,0.215-1.076,0.215c-0.382,0-0.739-0.072-1.069-0.215
	c-0.33-0.144-0.619-0.339-0.868-0.59c-0.249-0.247-0.445-0.536-0.59-0.866c-0.143-0.33-0.215-0.686-0.215-1.069
	c0-0.382,0.072-0.742,0.215-1.077c0.144-0.335,0.341-0.627,0.59-0.875c0.249-0.249,0.537-0.444,0.868-0.588
	c0.33-0.143,0.686-0.215,1.069-0.215c0.382,0,0.74,0.072,1.076,0.215c0.333,0.144,0.627,0.339,0.875,0.588
	c0.249,0.249,0.445,0.541,0.588,0.875C203.723,25.338,203.795,25.697,203.795,26.08 M203.35,26.08c0-0.316-0.06-0.614-0.18-0.897
	c-0.118-0.283-0.284-0.53-0.494-0.739c-0.21-0.21-0.456-0.375-0.739-0.494s-0.582-0.18-0.897-0.18c-0.316,0-0.614,0.06-0.897,0.18
	c-0.283,0.12-0.528,0.284-0.739,0.494c-0.21,0.209-0.376,0.456-0.496,0.739c-0.118,0.283-0.178,0.58-0.178,0.897
	c0,0.315,0.06,0.614,0.178,0.897c0.12,0.283,0.286,0.528,0.496,0.739c0.21,0.21,0.456,0.375,0.739,0.494
	c0.283,0.12,0.58,0.18,0.897,0.18c0.315,0,0.614-0.06,0.897-0.18c0.283-0.12,0.528-0.284,0.739-0.494
	c0.21-0.21,0.376-0.456,0.494-0.739C203.29,26.694,203.35,26.395,203.35,26.08 M201.572,27.213v-0.647l-0.08-0.264
	c-0.052-0.052-0.155-0.08-0.307-0.08h-0.561v0.991h-0.516v-2.511h1.276c0.24,0,0.428,0.071,0.567,0.21
	c0.14,0.14,0.209,0.315,0.209,0.528l-0.094,0.355l-0.279,0.224l0.236,0.164c0.043,0.071,0.064,0.177,0.064,0.319v0.709H201.572z
	 M200.624,25.132v0.69h0.66l0.295-0.097l0.092-0.241l-0.087-0.256l-0.286-0.095H200.624z"/>
<g>
	<path class="st0" d="M145.636,52.85c-0.046-0.459-0.212-0.8-0.501-1.024c-0.289-0.223-0.717-0.336-1.293-0.336
		c-1.063,0-1.592,0.364-1.592,1.09c0,0.261,0.109,0.478,0.33,0.654c0.221,0.174,0.573,0.321,1.058,0.436
		c0.576,0.135,1.075,0.26,1.497,0.378c0.424,0.115,0.809,0.25,1.161,0.404c0.198,0.08,0.384,0.181,0.559,0.303
		c0.177,0.121,0.324,0.272,0.445,0.451c0.121,0.18,0.218,0.395,0.29,0.646c0.072,0.25,0.108,0.556,0.108,0.915
		c0,0.43-0.089,0.812-0.269,1.144c-0.18,0.332-0.422,0.613-0.726,0.843c-0.307,0.229-0.665,0.402-1.078,0.524
		c-0.413,0.121-0.848,0.181-1.305,0.181c-1.302,0-2.28-0.253-2.935-0.76c-0.656-0.507-1.003-1.255-1.038-2.242h1.806
		c0.008,0.458,0.193,0.82,0.557,1.084c0.364,0.264,0.82,0.396,1.365,0.396c0.594,0,1.043-0.106,1.348-0.321
		c0.306-0.217,0.458-0.507,0.458-0.875c0-0.143-0.02-0.275-0.054-0.396l-0.21-0.329c-0.103-0.098-0.246-0.186-0.424-0.261
		c-0.181-0.078-0.415-0.147-0.703-0.21c-0.683-0.143-1.275-0.287-1.772-0.436c-0.502-0.147-0.914-0.332-1.238-0.551
		c-0.324-0.218-0.561-0.485-0.714-0.799c-0.154-0.315-0.23-0.713-0.23-1.196c0-0.369,0.068-0.713,0.203-1.035
		c0.134-0.322,0.342-0.602,0.619-0.842c0.28-0.236,0.625-0.425,1.034-0.564c0.41-0.14,0.892-0.209,1.451-0.209
		c0.539,0,1.024,0.069,1.454,0.209c0.433,0.14,0.803,0.336,1.113,0.593c0.31,0.256,0.551,0.565,0.722,0.929
		c0.172,0.364,0.266,0.765,0.284,1.205H145.636z"/>
	<path class="st0" d="M150.849,50.103h1.752v1.629h-1.752V50.103z M150.849,52.526h1.752v6.623h-1.752V52.526z"/>
	<path class="st0" d="M160.274,59.15v-4.013c0-0.511-0.085-0.855-0.255-1.037c-0.17-0.18-0.464-0.269-0.875-0.269
		c-0.908,0-1.361,0.508-1.361,1.522v3.796h-1.751v-6.623h1.669v0.966c0.204-0.381,0.479-0.668,0.818-0.863
		c0.342-0.195,0.779-0.292,1.316-0.292c0.313,0,0.603,0.046,0.872,0.141c0.269,0.095,0.499,0.237,0.691,0.425
		c0.192,0.189,0.346,0.421,0.458,0.696c0.111,0.273,0.166,0.591,0.166,0.949v4.601H160.274z"/>
	<path class="st0" d="M177.398,56.753c-0.045,0.387-0.157,0.736-0.33,1.05c-0.175,0.313-0.398,0.582-0.665,0.808
		c-0.269,0.224-0.577,0.399-0.923,0.524c-0.347,0.126-0.72,0.19-1.126,0.19c-0.447,0-0.858-0.074-1.23-0.223
		c-0.373-0.147-0.694-0.372-0.963-0.673c-0.269-0.301-0.479-0.674-0.625-1.118c-0.149-0.444-0.224-0.963-0.224-1.554
		c0-0.593,0.075-1.106,0.224-1.536c0.146-0.432,0.356-0.783,0.625-1.057c0.269-0.275,0.594-0.479,0.975-0.613
		c0.381-0.135,0.806-0.203,1.273-0.203c0.432,0,0.823,0.058,1.176,0.177c0.358,0.115,0.667,0.286,0.929,0.51
		c0.266,0.226,0.475,0.494,0.628,0.808c0.152,0.315,0.241,0.666,0.269,1.052h-1.764c-0.043-0.342-0.181-0.608-0.41-0.802
		c-0.23-0.194-0.51-0.29-0.842-0.29c-0.189,0-0.362,0.031-0.524,0.094c-0.164,0.065-0.306,0.169-0.425,0.316
		c-0.12,0.149-0.217,0.347-0.29,0.593c-0.071,0.249-0.107,0.55-0.107,0.909c0,0.728,0.131,1.265,0.392,1.614
		c0.26,0.352,0.561,0.527,0.901,0.527c0.339,0,0.634-0.095,0.874-0.283c0.244-0.189,0.384-0.462,0.419-0.822H177.398z"/>
	<path class="st0" d="M183.787,59.325c-0.537,0-1.018-0.086-1.439-0.255c-0.421-0.174-0.777-0.41-1.067-0.717
		c-0.292-0.304-0.513-0.674-0.665-1.106c-0.152-0.432-0.229-0.903-0.229-1.416c0-0.522,0.077-0.998,0.235-1.43
		c0.158-0.432,0.382-0.8,0.677-1.107c0.296-0.304,0.653-0.541,1.07-0.708c0.415-0.166,0.888-0.249,1.417-0.249
		c0.519,0,0.986,0.083,1.396,0.249c0.412,0.167,0.763,0.401,1.055,0.7c0.292,0.303,0.516,0.668,0.671,1.1
		c0.157,0.433,0.236,0.914,0.236,1.445c0,0.531-0.08,1.009-0.236,1.437c-0.155,0.427-0.379,0.794-0.671,1.1
		c-0.292,0.304-0.643,0.541-1.063,0.706C184.761,59.241,184.296,59.325,183.787,59.325 M183.793,57.857c1.067,0,1.6-0.673,1.6-2.019
		c0-1.338-0.533-2.006-1.6-2.006c-1.069,0-1.603,0.668-1.603,2.006C182.19,57.184,182.725,57.857,183.793,57.857"/>
	<path class="st0" d="M194.644,59.15v-4.013c0-0.511-0.085-0.855-0.255-1.037c-0.172-0.18-0.462-0.269-0.874-0.269
		c-0.909,0-1.362,0.508-1.362,1.522v3.796h-1.751v-6.623h1.671v0.966c0.204-0.381,0.479-0.668,0.818-0.863
		c0.339-0.195,0.779-0.292,1.315-0.292c0.313,0,0.603,0.046,0.874,0.141c0.267,0.095,0.498,0.237,0.689,0.425
		c0.192,0.189,0.346,0.421,0.458,0.696c0.112,0.273,0.167,0.591,0.167,0.949v4.601H194.644z"/>
	<path class="st0" d="M203.786,54.532c-0.046-0.304-0.161-0.528-0.344-0.666c-0.184-0.138-0.464-0.209-0.84-0.209
		c-0.361,0-0.633,0.043-0.815,0.127c-0.183,0.086-0.276,0.232-0.276,0.438c0,0.181,0.094,0.322,0.276,0.43
		c0.183,0.108,0.451,0.213,0.8,0.312c0.576,0.161,1.06,0.298,1.456,0.41c0.395,0.112,0.709,0.246,0.949,0.398
		c0.237,0.152,0.407,0.344,0.511,0.571c0.101,0.229,0.154,0.536,0.154,0.923c0,0.593-0.246,1.084-0.74,1.473
		c-0.493,0.392-1.224,0.588-2.193,0.588c-0.478,0-0.908-0.057-1.293-0.164c-0.385-0.108-0.716-0.261-0.99-0.464
		c-0.273-0.201-0.485-0.444-0.633-0.728c-0.147-0.281-0.227-0.599-0.235-0.948h1.804c0,0.318,0.123,0.564,0.369,0.737
		c0.247,0.172,0.568,0.258,0.963,0.258c0.332,0,0.617-0.052,0.855-0.154c0.238-0.104,0.356-0.264,0.356-0.481
		c0-0.243-0.086-0.418-0.263-0.525c-0.174-0.108-0.442-0.203-0.8-0.284c-0.646-0.143-1.166-0.295-1.563-0.451
		c-0.395-0.157-0.702-0.33-0.921-0.519c-0.22-0.19-0.367-0.398-0.444-0.622c-0.077-0.226-0.114-0.476-0.114-0.756
		c0-0.252,0.051-0.491,0.154-0.716c0.104-0.224,0.267-0.422,0.491-0.593c0.223-0.17,0.516-0.309,0.875-0.413
		c0.359-0.103,0.8-0.155,1.321-0.155c0.951,0,1.646,0.193,2.085,0.579c0.441,0.387,0.682,0.921,0.726,1.603H203.786z"/>
	<path class="st0" d="M210.368,56.297c0.028,0.501,0.172,0.901,0.439,1.198c0.264,0.295,0.613,0.444,1.043,0.444
		c0.287,0,0.541-0.064,0.762-0.197c0.218-0.129,0.359-0.312,0.422-0.544h1.804c-0.206,0.682-0.565,1.207-1.076,1.574
		c-0.513,0.369-1.123,0.553-1.832,0.553c-2.208,0-3.311-1.204-3.311-3.609c0-0.511,0.072-0.974,0.215-1.387
		c0.143-0.413,0.352-0.768,0.627-1.063c0.273-0.298,0.608-0.524,1.004-0.68c0.393-0.158,0.848-0.236,1.358-0.236
		c1.024,0,1.798,0.329,2.323,0.983c0.524,0.656,0.788,1.643,0.788,2.964H210.368z M213.129,55.191
		c-0.009-0.243-0.052-0.455-0.127-0.639c-0.077-0.184-0.178-0.338-0.304-0.458c-0.126-0.121-0.269-0.212-0.43-0.269
		c-0.163-0.058-0.329-0.088-0.498-0.088c-0.35,0-0.653,0.127-0.911,0.382c-0.255,0.256-0.401,0.613-0.438,1.07H213.129z"/>
	<path class="st0" d="M218.164,59.15v-6.623h1.642v0.788c0.146-0.226,0.295-0.402,0.451-0.53c0.158-0.127,0.319-0.224,0.485-0.29
		c0.166-0.069,0.335-0.112,0.504-0.129c0.172-0.018,0.346-0.028,0.525-0.028h0.23v1.804c-0.163-0.028-0.324-0.041-0.485-0.041
		c-1.069,0-1.602,0.534-1.602,1.602v3.448H218.164z"/>
	<polygon class="st0" points="227.157,59.15 224.787,52.526 226.741,52.526 228.126,56.902 229.527,52.526 231.371,52.526 
		228.988,59.15 	"/>
	<path class="st0" d="M238.089,59.149c-0.054-0.169-0.091-0.367-0.107-0.591c-0.206,0.233-0.481,0.419-0.82,0.559
		c-0.342,0.14-0.737,0.21-1.186,0.21c-0.763,0-1.322-0.17-1.675-0.507c-0.356-0.336-0.533-0.774-0.533-1.313
		c0-0.476,0.077-0.855,0.229-1.138c0.152-0.281,0.364-0.504,0.634-0.666c0.269-0.16,0.588-0.279,0.963-0.356
		c0.372-0.075,0.777-0.146,1.218-0.209c0.439-0.063,0.736-0.146,0.889-0.249c0.152-0.103,0.227-0.27,0.227-0.504
		c0-0.215-0.1-0.385-0.303-0.505c-0.203-0.121-0.475-0.183-0.814-0.183c-0.404,0-0.694,0.091-0.869,0.269
		c-0.175,0.18-0.286,0.419-0.33,0.716h-1.628c0.009-0.342,0.063-0.657,0.169-0.943c0.103-0.289,0.267-0.534,0.496-0.742
		c0.229-0.206,0.528-0.365,0.895-0.478c0.367-0.112,0.814-0.169,1.342-0.169c0.519,0,0.961,0.058,1.322,0.177
		c0.362,0.115,0.654,0.283,0.872,0.504c0.22,0.221,0.378,0.493,0.476,0.823c0.098,0.326,0.147,0.696,0.147,1.11v4.185H238.089z
		 M237.969,55.905c-0.091,0.089-0.221,0.161-0.39,0.215c-0.172,0.054-0.418,0.112-0.74,0.175c-0.505,0.098-0.851,0.226-1.038,0.376
		c-0.189,0.154-0.283,0.373-0.283,0.66c0,0.493,0.283,0.742,0.848,0.742c0.226,0,0.433-0.038,0.625-0.115
		c0.195-0.077,0.361-0.18,0.499-0.31c0.138-0.129,0.252-0.283,0.338-0.458c0.083-0.175,0.126-0.361,0.126-0.557L237.969,55.905z"/>
	<path class="st0" d="M247.702,59.15l-0.014-0.808c-0.404,0.654-1.018,0.983-1.843,0.983c-0.424,0-0.809-0.081-1.159-0.243
		c-0.349-0.161-0.651-0.395-0.901-0.702c-0.252-0.303-0.448-0.676-0.594-1.116c-0.141-0.439-0.213-0.937-0.213-1.494
		c0-0.502,0.06-0.963,0.181-1.379c0.123-0.419,0.299-0.78,0.533-1.084c0.232-0.304,0.516-0.541,0.854-0.708
		c0.336-0.166,0.72-0.247,1.152-0.247c0.815,0,1.473,0.346,1.964,1.037v-3.285h1.725v9.047H247.702z M246.248,57.898
		c0.422,0,0.774-0.175,1.057-0.527c0.284-0.349,0.424-0.808,0.424-1.373c0-1.434-0.488-2.153-1.467-2.153
		c-1.004,0-1.508,0.682-1.508,2.045c0,0.593,0.138,1.076,0.418,1.448C245.448,57.711,245.809,57.898,246.248,57.898"/>
	<path class="st0" d="M256.029,59.325c-0.537,0-1.018-0.086-1.439-0.255c-0.419-0.174-0.777-0.41-1.067-0.717
		c-0.292-0.304-0.513-0.674-0.665-1.106c-0.154-0.432-0.229-0.903-0.229-1.416c0-0.522,0.078-0.998,0.235-1.43
		c0.157-0.432,0.384-0.8,0.679-1.107c0.295-0.304,0.651-0.541,1.069-0.708c0.416-0.166,0.889-0.249,1.417-0.249
		c0.519,0,0.984,0.083,1.397,0.249c0.412,0.167,0.763,0.401,1.055,0.7c0.29,0.303,0.514,0.668,0.671,1.1
		c0.157,0.433,0.236,0.914,0.236,1.445c0,0.531-0.08,1.009-0.236,1.437c-0.157,0.427-0.381,0.794-0.671,1.1
		c-0.292,0.304-0.647,0.541-1.063,0.706C257.003,59.241,256.54,59.325,256.029,59.325 M256.035,57.857
		c1.069,0,1.602-0.673,1.602-2.019c0-1.338-0.533-2.006-1.602-2.006c-1.067,0-1.6,0.668-1.6,2.006
		C254.435,57.184,254.968,57.857,256.035,57.857"/>
	<path class="st0" d="M262.659,59.15v-6.623h1.643v0.788c0.143-0.226,0.295-0.402,0.45-0.53c0.158-0.127,0.321-0.224,0.487-0.29
		c0.164-0.069,0.333-0.112,0.504-0.129c0.17-0.018,0.345-0.028,0.525-0.028h0.229v1.804c-0.161-0.028-0.323-0.041-0.484-0.041
		c-1.069,0-1.603,0.534-1.603,1.602v3.448H262.659z"/>
	<polygon class="st1" points="70.283,49.42 70.982,49.42 70.982,50.67 71.965,49.42 72.794,49.42 71.529,51.039 72.918,53.047 
		72.098,53.047 70.982,51.435 70.982,53.047 70.283,53.047 	"/>
	<path class="st1" d="M76.151,51.9h-2.162c0.031,0.192,0.114,0.344,0.25,0.456c0.135,0.114,0.309,0.169,0.521,0.169
		c0.25,0,0.465-0.088,0.648-0.263l0.567,0.264c-0.143,0.201-0.31,0.35-0.508,0.445c-0.197,0.097-0.431,0.144-0.702,0.144
		c-0.422,0-0.765-0.131-1.03-0.398c-0.264-0.266-0.396-0.597-0.396-0.998c0-0.41,0.132-0.748,0.396-1.018
		c0.263-0.272,0.594-0.407,0.992-0.407c0.422,0,0.766,0.135,1.032,0.407c0.264,0.27,0.396,0.627,0.396,1.07L76.151,51.9z
		 M75.478,51.37c-0.045-0.15-0.132-0.27-0.263-0.365c-0.131-0.094-0.283-0.14-0.456-0.14c-0.187,0-0.352,0.052-0.494,0.158
		c-0.089,0.065-0.17,0.183-0.246,0.347H75.478z"/>
	<polygon class="st1" points="76.904,49.376 77.577,49.376 77.577,50.365 77.978,50.365 77.978,50.944 77.577,50.944 77.577,53.048 
		76.904,53.048 76.904,50.944 76.559,50.944 76.559,50.365 76.904,50.365 	"/>
	<path class="st1" d="M79.724,50.296c0.253,0,0.491,0.061,0.716,0.189c0.223,0.126,0.396,0.298,0.521,0.516
		c0.126,0.217,0.187,0.451,0.187,0.702c0,0.253-0.061,0.49-0.19,0.713c-0.124,0.22-0.295,0.393-0.513,0.516
		c-0.218,0.123-0.456,0.184-0.717,0.184c-0.385,0-0.714-0.135-0.984-0.41c-0.273-0.273-0.41-0.605-0.41-0.997
		c0-0.421,0.154-0.769,0.461-1.047C79.064,50.417,79.374,50.296,79.724,50.296 M79.735,50.929c-0.209,0-0.384,0.074-0.522,0.218
		c-0.14,0.146-0.209,0.332-0.209,0.559c0,0.233,0.069,0.424,0.206,0.568c0.138,0.146,0.312,0.217,0.524,0.217
		c0.21,0,0.385-0.072,0.527-0.218c0.14-0.147,0.21-0.336,0.21-0.567c0-0.23-0.069-0.418-0.207-0.561
		C80.125,51.001,79.948,50.929,79.735,50.929"/>
	<polygon class="st1" points="81.906,49.376 82.578,49.376 82.578,50.365 82.979,50.365 82.979,50.944 82.578,50.944 82.578,53.048 
		81.906,53.048 81.906,50.944 81.56,50.944 81.56,50.365 81.906,50.365 	"/>
	<path class="st1" d="M83.727,49.258l0.306,0.129l0.126,0.312l-0.124,0.307l-0.301,0.126l-0.307-0.129l-0.127-0.313l0.127-0.304
		L83.727,49.258z M83.391,50.364h0.673v2.684h-0.673V50.364z"/>
	<path class="st1" d="M84.482,50.365h0.24c0.002-0.352,0.008-0.56,0.017-0.623c0.018-0.149,0.081-0.267,0.186-0.352
		c0.106-0.088,0.256-0.131,0.451-0.131c0.14,0,0.296,0.032,0.473,0.097v0.513l-0.24-0.041l-0.174,0.051l-0.038,0.152l-0.003,0.335
		h0.428v0.57h-0.428v2.115h-0.673v-2.115h-0.24V50.365z"/>
	<path class="st1" d="M89.03,51.9h-2.162c0.032,0.192,0.114,0.344,0.25,0.456c0.135,0.114,0.309,0.169,0.519,0.169
		c0.252,0,0.468-0.088,0.65-0.263l0.567,0.264c-0.141,0.201-0.31,0.35-0.508,0.445c-0.197,0.097-0.431,0.144-0.702,0.144
		c-0.422,0-0.765-0.131-1.029-0.398c-0.266-0.266-0.398-0.597-0.398-0.998c0-0.41,0.132-0.748,0.395-1.018
		c0.266-0.272,0.596-0.407,0.994-0.407c0.424,0,0.766,0.135,1.032,0.407c0.264,0.27,0.396,0.627,0.396,1.07L89.03,51.9z
		 M88.357,51.37c-0.043-0.15-0.132-0.27-0.263-0.365c-0.131-0.094-0.283-0.14-0.456-0.14c-0.187,0-0.353,0.052-0.494,0.158
		c-0.089,0.065-0.172,0.183-0.247,0.347H88.357z"/>
	<path class="st1" d="M89.703,50.365h0.673v0.275c0.154-0.129,0.29-0.218,0.415-0.269l0.382-0.074c0.264,0,0.49,0.091,0.676,0.276
		c0.157,0.158,0.235,0.392,0.235,0.7v1.775h-0.666v-1.176c0-0.321-0.015-0.533-0.041-0.639l-0.152-0.241l-0.264-0.081l-0.352,0.137
		c-0.097,0.092-0.164,0.218-0.201,0.378c-0.022,0.084-0.031,0.267-0.031,0.545v1.078h-0.673V50.365z"/>
	<path class="st1" d="M94.12,50.296c0.253,0,0.491,0.061,0.716,0.189c0.223,0.126,0.396,0.298,0.521,0.516
		c0.126,0.217,0.187,0.451,0.187,0.702c0,0.253-0.061,0.49-0.19,0.713c-0.124,0.22-0.295,0.393-0.511,0.516
		c-0.22,0.123-0.458,0.184-0.719,0.184c-0.384,0-0.714-0.135-0.984-0.41c-0.273-0.273-0.41-0.605-0.41-0.997
		c0-0.421,0.154-0.769,0.461-1.047C93.46,50.417,93.77,50.296,94.12,50.296 M94.131,50.929c-0.209,0-0.384,0.074-0.522,0.218
		c-0.14,0.146-0.209,0.332-0.209,0.559c0,0.233,0.069,0.424,0.206,0.568c0.138,0.146,0.312,0.217,0.525,0.217
		c0.209,0,0.385-0.072,0.525-0.218c0.14-0.147,0.21-0.336,0.21-0.567c0-0.23-0.069-0.418-0.207-0.561
		C94.521,51.001,94.346,50.929,94.131,50.929"/>
	<path class="st1" d="M98.824,49.327c0.266,0,0.493,0.068,0.685,0.197c0.192,0.129,0.339,0.33,0.445,0.594
		c0.103,0.267,0.155,0.639,0.155,1.116c0,0.481-0.052,0.858-0.158,1.124c-0.108,0.269-0.25,0.467-0.428,0.591
		c-0.18,0.126-0.405,0.189-0.679,0.189c-0.272,0-0.502-0.063-0.688-0.189c-0.186-0.127-0.332-0.319-0.436-0.577
		c-0.106-0.258-0.16-0.627-0.16-1.104c0-0.665,0.104-1.147,0.309-1.447C98.099,49.493,98.415,49.327,98.824,49.327 M98.839,49.985
		l-0.31,0.112c-0.091,0.075-0.158,0.203-0.206,0.387c-0.049,0.181-0.072,0.448-0.072,0.802c0,0.459,0.055,0.776,0.164,0.951
		c0.109,0.174,0.25,0.263,0.424,0.263c0.167,0,0.301-0.083,0.398-0.249c0.121-0.201,0.181-0.537,0.181-1.007
		c0-0.478-0.052-0.806-0.161-0.986C99.149,50.075,99.01,49.985,98.839,49.985"/>
	<polygon class="st1" points="101.083,52.345 101.358,52.459 101.471,52.731 101.358,53.004 101.083,53.116 100.809,53.004 
		100.696,52.731 100.809,52.459 	"/>
	<path class="st1" d="M103.319,49.327c0.266,0,0.493,0.068,0.685,0.197c0.19,0.129,0.338,0.33,0.445,0.594
		c0.103,0.267,0.155,0.639,0.155,1.116c0,0.481-0.052,0.858-0.16,1.124c-0.106,0.269-0.249,0.467-0.428,0.591
		c-0.178,0.126-0.404,0.189-0.677,0.189s-0.502-0.063-0.688-0.189c-0.186-0.127-0.332-0.319-0.438-0.577
		c-0.104-0.258-0.158-0.627-0.158-1.104c0-0.665,0.104-1.147,0.31-1.447C102.593,49.493,102.911,49.327,103.319,49.327
		 M103.334,49.985l-0.309,0.112c-0.091,0.075-0.16,0.203-0.207,0.387c-0.048,0.181-0.071,0.448-0.071,0.802
		c0,0.459,0.054,0.776,0.163,0.951c0.109,0.174,0.25,0.263,0.424,0.263c0.167,0,0.301-0.083,0.399-0.249
		c0.12-0.201,0.18-0.537,0.18-1.007c0-0.478-0.052-0.806-0.161-0.986C103.645,50.075,103.505,49.985,103.334,49.985"/>
	<path class="st1" d="M105.752,50.588h-0.673c0.017-0.39,0.14-0.699,0.369-0.923c0.227-0.226,0.519-0.338,0.877-0.338
		c0.22,0,0.415,0.048,0.582,0.141c0.169,0.092,0.304,0.226,0.404,0.402c0.103,0.175,0.152,0.352,0.152,0.531
		c0,0.217-0.061,0.448-0.183,0.697c-0.123,0.249-0.347,0.542-0.673,0.881l-0.407,0.428h1.293v0.637h-2.514v-0.329l1.123-1.144
		c0.27-0.275,0.451-0.498,0.542-0.663c0.089-0.166,0.134-0.318,0.134-0.451c0-0.141-0.046-0.256-0.138-0.349
		c-0.094-0.091-0.215-0.137-0.359-0.137c-0.147,0-0.272,0.055-0.37,0.166C105.812,50.25,105.758,50.399,105.752,50.588"/>
	<path class="st1" d="M108.67,49.42h1.7v0.639h-1.184l-0.149,0.659l0.12-0.026l0.115-0.009c0.329,0,0.602,0.114,0.822,0.336
		c0.215,0.226,0.326,0.513,0.326,0.863c0,0.353-0.121,0.651-0.361,0.894c-0.241,0.244-0.536,0.364-0.88,0.364
		c-0.309,0-0.574-0.089-0.797-0.264c-0.223-0.175-0.367-0.416-0.436-0.722h0.725l0.22,0.256l0.304,0.088
		c0.152,0,0.281-0.055,0.389-0.164c0.107-0.111,0.161-0.252,0.161-0.425c0-0.167-0.049-0.306-0.149-0.412
		c-0.1-0.109-0.221-0.163-0.362-0.163l-0.223,0.057l-0.217,0.17l-0.562-0.126L108.67,49.42z"/>
	<path class="st1" d="M114.12,49.26h0.499l-2.878,4.034h-0.499l2.462-3.466c-0.147,0.026-0.287,0.045-0.418,0.055l-0.361,0.02
		l-0.362-0.017l0.055,0.312c0,0.241-0.084,0.445-0.25,0.613c-0.166,0.167-0.372,0.25-0.611,0.25c-0.241,0-0.447-0.083-0.616-0.25
		c-0.17-0.167-0.255-0.372-0.255-0.61c0-0.155,0.038-0.296,0.115-0.432l0.318-0.321l0.41-0.12c0.103,0,0.243,0.02,0.421,0.058
		c0.318,0.069,0.597,0.104,0.84,0.104c0.22,0,0.422-0.02,0.611-0.058C113.79,49.395,113.963,49.337,114.12,49.26 M111.752,49.778
		l-0.295,0.123l-0.121,0.293l0.121,0.296l0.295,0.123l0.295-0.123l0.123-0.296l-0.123-0.293L111.752,49.778 M114.157,51.413
		c0.24,0,0.444,0.084,0.613,0.253c0.169,0.17,0.253,0.375,0.253,0.614c0,0.238-0.084,0.442-0.253,0.613
		c-0.169,0.169-0.373,0.253-0.613,0.253s-0.444-0.084-0.613-0.253c-0.169-0.17-0.252-0.375-0.252-0.613
		c0-0.24,0.083-0.444,0.252-0.614C113.713,51.497,113.917,51.413,114.157,51.413 M114.155,51.861l-0.298,0.123l-0.121,0.295
		l0.121,0.295l0.298,0.123l0.296-0.123l0.123-0.295l-0.123-0.295L114.155,51.861"/>
	<path class="st0" d="M99.628,33.02c1.97-4.88,6.244-6.33,11.339-6.33c5.78,0,9.278,1.27,8.62,4.919
		c-0.456,2.499-2.968,7.7-3.764,9.44c-0.599,1.296-1.095,2.489-1.279,3.507c-0.118,0.648-0.045,1.116,0.02,1.442h-6.702
		c0.002-0.903-0.009-0.831,0.17-1.806h-0.084c-1.585,1.66-3.756,2.348-6.723,2.348c-3.891,0-6.528-1.41-5.825-5.278
		c0.915-5.022,6.067-6.001,11.47-6.364c2.348-0.107,5.53,0.038,5.978-2.422c0.194-1.086-0.518-1.807-2.565-1.807
		c-2.164,0-3.59,0.579-4.195,2.351H99.628z M104.722,42.743c4.131,0,5.597-3.649,6.147-5.349h-0.037
		c-1.966,1.299-7.867-0.218-8.523,3.395C102.037,42.274,103.359,42.743,104.722,42.743"/>
	<path class="st0" d="M251.904,33.02c1.967-4.88,6.239-6.33,11.335-6.33c5.777,0,9.281,1.27,8.617,4.919
		c-0.453,2.499-2.961,7.7-3.759,9.44c-0.597,1.296-1.092,2.489-1.279,3.507c-0.117,0.648-0.046,1.116,0.014,1.442h-6.695
		c0.005-0.903-0.009-0.831,0.167-1.806h-0.08c-1.589,1.66-3.756,2.348-6.726,2.348c-3.891,0-6.523-1.41-5.82-5.278
		c0.909-5.022,6.066-6.001,11.464-6.364c2.348-0.107,5.533,0.038,5.983-2.422c0.189-1.086-0.516-1.807-2.565-1.807
		c-2.168,0-3.593,0.579-4.198,2.351H251.904z M256.994,42.743c4.131,0,5.596-3.649,6.149-5.349h-0.038
		c-1.963,1.299-7.867-0.218-8.524,3.395C254.308,42.274,255.629,42.743,256.994,42.743"/>
	<path class="st0" d="M129.633,43.751l-0.236,0.293c-1.794,1.7-4.145,2.499-6.554,2.499c-5.054,0-6.671-3.692-5.909-7.884
		c1.081-5.928,6.026-11.967,13.128-11.967c3.171,0,4.859,0.869,5.519,3.183h0.083 M126.587,41.841c4.096,0,6.161-4.086,6.697-7.05
		c0.358-1.952-0.545-3.395-2.79-3.395c-3.81,0-6.181,4.192-6.672,6.901C123.436,40.429,124.302,41.841,126.587,41.841"/>
	<polygon class="st0" points="145.748,20.73 139.241,20.73 128.473,46.541 134.984,46.541 	"/>
	<polygon class="st0" points="164.788,20.73 158.279,20.73 147.513,46.541 154.029,46.541 	"/>
	<polygon class="st0" points="150.374,29.384 143.865,29.384 136.667,46.542 143.18,46.542 	"/>
	<polygon class="st0" points="152.364,24.468 145.858,24.468 144.271,28.201 150.784,28.201 	"/>
	<polygon class="st0" points="166.001,24.938 153.686,24.938 152.108,28.673 164.416,28.673 	"/>
	<polygon class="st0" points="254.621,20.73 248.111,20.73 237.345,46.541 243.858,46.541 	"/>
	<polygon class="st0" points="255.831,24.938 243.522,24.938 241.941,28.673 254.249,28.673 	"/>
	<path class="st0" d="M193.316,29.384c-3.039,0-5.091,0.794-6.404,1.602l0.674-1.602h-6.513L173.9,46.542h6.511l4.347-10.401
		c0-0.008,1.678-3.305,4.39-3.305c2.718,0,1.606,2.687,1.606,2.687l0.029,0.015l-4.638,11.003h6.511l5.828-13.849
		C198.485,32.693,199.53,29.384,193.316,29.384"/>
	<path class="st0" d="M175.692,38.512c0,0,5.257-10.188-4.939-10.188c-6.508,0-11.038,5.528-12.029,10.965
		c-0.696,3.842,0.785,7.218,5.415,7.218c7.496,0,11.166-6.503,11.166-6.503h-4.53c-0.556,1.325-2.523,2.718-4.441,2.718
		c-3.738,0-2.99-4.048-2.952-4.209h8.079H175.692 M169.391,32.631c2.022,0,2.855,1.285,2.574,3.03h-7.344
		C165.679,34.016,167.295,32.631,169.391,32.631"/>
	<path class="st0" d="M243.331,20.745h-6.17c-2.996,0-3.847,2.422-3.847,2.422l-1.084,2.58h-2.849l-1.585,3.732h2.872l-7.118,17.063
		h6.51l7.115-17.063h2.93l1.58-3.732h-2.953l0.413-0.967h4.413l0.666-1.612C245.422,20.848,243.331,20.745,243.331,20.745"/>
	<path class="st0" d="M220.109,21.373c-5.92-2.259-12.81,1.394-15.395,8.159c-2.583,6.76,0.117,14.077,6.04,16.338
		c5.92,2.259,12.812-1.39,15.393-8.153C228.731,30.951,226.029,23.638,220.109,21.373 M221.383,35.897
		c-1.434,3.756-5.266,5.786-8.549,4.53c-3.289-1.259-4.793-5.32-3.357-9.079c1.437-3.758,5.263-5.783,8.552-4.529
		C221.317,28.076,222.819,32.143,221.383,35.897"/>
	<polygon class="st0" points="71.318,40.754 91.842,26.513 77.878,26.513 80.254,20.725 103.688,20.725 101.352,26.513 
		80.305,40.754 96.036,40.754 93.699,46.541 69.021,46.541 	"/>
</g>
<g>
	<defs>
		<rect id="SVGID_4_" x="3.29" y="19.769" width="69.29" height="41.604"/>
	</defs>
	<clipPath id="SVGID_5_">
		<use xlink:href="#SVGID_4_"  style="overflow:visible;"/>
	</clipPath>
	<polygon class="st2" points="68.718,29.079 16.665,29.079 16.665,29.078 68.718,29.078 72.579,19.77 72.579,19.772 	"/>
	<polygon class="st2" points="62.038,45.228 9.986,45.228 9.986,45.227 62.038,45.227 65.899,35.919 65.902,35.919 	"/>
	<polygon class="st2" points="55.344,61.372 3.289,61.372 3.29,61.37 55.344,61.37 59.203,52.066 59.205,52.066 	"/>
</g>
<g>
	<defs>
		<polygon id="SVGID_3_" points="20.524,19.769 16.664,29.079 68.718,29.079 72.578,19.769 		"/>
	</defs>
	<clipPath id="SVGID_6_">
		<use xlink:href="#SVGID_3_"  style="overflow:visible;"/>
	</clipPath>
	
		<linearGradient id="SVGID_7_" gradientUnits="userSpaceOnUse" x1="-1219.6105" y1="-788.2451" x2="-1218.0748" y2="-788.2451" gradientTransform="matrix(28.9396 11.9871 -11.9871 28.9396 25868.623 37446.3555)">
		<stop  offset="0" style="stop-color:#FFFFFF"/>
		<stop  offset="0.1153" style="stop-color:#FFFDFC"/>
		<stop  offset="0.234" style="stop-color:#FFF7F1"/>
		<stop  offset="0.3541" style="stop-color:#FEEDDE"/>
		<stop  offset="0.4754" style="stop-color:#FDDFC3"/>
		<stop  offset="0.5975" style="stop-color:#FBCCA0"/>
		<stop  offset="0.7203" style="stop-color:#F8B475"/>
		<stop  offset="0.8415" style="stop-color:#F49741"/>
		<stop  offset="0.9" style="stop-color:#F18725"/>
		<stop  offset="1" style="stop-color:#EF7A00"/>
	</linearGradient>
	<polygon class="st3" points="13.372,27.716 64.39,48.848 75.87,21.132 24.852,0 	"/>
</g>
<g>
	<defs>
		<polygon id="SVGID_2_" points="13.846,35.919 9.985,45.227 62.038,45.227 65.898,35.919 		"/>
	</defs>
	<clipPath id="SVGID_8_">
		<use xlink:href="#SVGID_2_"  style="overflow:visible;"/>
	</clipPath>
	
		<linearGradient id="SVGID_9_" gradientUnits="userSpaceOnUse" x1="-1219.6111" y1="-788.0508" x2="-1218.0754" y2="-788.0508" gradientTransform="matrix(28.94 11.9873 -11.9873 28.94 25864.6445 37457.4375)">
		<stop  offset="0" style="stop-color:#FFFFFF"/>
		<stop  offset="0.1153" style="stop-color:#FFFDFC"/>
		<stop  offset="0.234" style="stop-color:#FFF7F1"/>
		<stop  offset="0.3541" style="stop-color:#FEEDDE"/>
		<stop  offset="0.4754" style="stop-color:#FDDFC3"/>
		<stop  offset="0.5975" style="stop-color:#FBCCA0"/>
		<stop  offset="0.7203" style="stop-color:#F8B475"/>
		<stop  offset="0.8415" style="stop-color:#F49741"/>
		<stop  offset="0.9" style="stop-color:#F18725"/>
		<stop  offset="1" style="stop-color:#EF7A00"/>
	</linearGradient>
	<polygon class="st4" points="6.694,43.864 57.71,64.995 69.189,37.282 18.173,16.151 	"/>
</g>
<g>
	<defs>
		<polygon id="SVGID_1_" points="7.152,52.067 3.29,61.371 55.345,61.371 59.203,52.067 		"/>
	</defs>
	<clipPath id="SVGID_10_">
		<use xlink:href="#SVGID_1_"  style="overflow:visible;"/>
	</clipPath>
	
		<linearGradient id="SVGID_11_" gradientUnits="userSpaceOnUse" x1="-1219.6123" y1="-787.8564" x2="-1218.0767" y2="-787.8564" gradientTransform="matrix(28.9404 11.9875 -11.9875 28.9404 25860.6328 37468.5078)">
		<stop  offset="0" style="stop-color:#FFFFFF"/>
		<stop  offset="0.1153" style="stop-color:#FFFDFC"/>
		<stop  offset="0.234" style="stop-color:#FFF7F1"/>
		<stop  offset="0.3541" style="stop-color:#FEEDDE"/>
		<stop  offset="0.4754" style="stop-color:#FDDFC3"/>
		<stop  offset="0.5975" style="stop-color:#FBCCA0"/>
		<stop  offset="0.7203" style="stop-color:#F8B475"/>
		<stop  offset="0.8415" style="stop-color:#F49741"/>
		<stop  offset="0.9" style="stop-color:#F18725"/>
		<stop  offset="1" style="stop-color:#EF7A00"/>
	</linearGradient>
	<polygon class="st5" points="0,60.009 51.015,81.14 62.493,53.429 11.478,32.298 	"/>
</g>
<rect x="69.023" y="55.54" class="st1" width="38.034" height="0.21"/>
<polygon class="st1" points="115.002,55.539 92.345,55.539 96.555,58.202 115.002,58.202 "/>
</svg>